%TF.GenerationSoftware,KiCad,Pcbnew,7.0.10*%
%TF.CreationDate,2024-02-01T11:04:59-05:00*%
%TF.ProjectId,quad_payload_adapter,71756164-5f70-4617-996c-6f61645f6164,rev?*%
%TF.SameCoordinates,Original*%
%TF.FileFunction,Legend,Bot*%
%TF.FilePolarity,Positive*%
%FSLAX46Y46*%
G04 Gerber Fmt 4.6, Leading zero omitted, Abs format (unit mm)*
G04 Created by KiCad (PCBNEW 7.0.10) date 2024-02-01 11:04:59*
%MOMM*%
%LPD*%
G01*
G04 APERTURE LIST*
%ADD10C,0.127000*%
%ADD11C,0.100000*%
G04 APERTURE END LIST*
D10*
X97900684Y-92724266D02*
X97900684Y-93147599D01*
X97900684Y-93147599D02*
X98535684Y-92875456D01*
X97900684Y-93510456D02*
X97900684Y-93570933D01*
X97900684Y-93570933D02*
X97930922Y-93631409D01*
X97930922Y-93631409D02*
X97961160Y-93661647D01*
X97961160Y-93661647D02*
X98021636Y-93691885D01*
X98021636Y-93691885D02*
X98142588Y-93722123D01*
X98142588Y-93722123D02*
X98293779Y-93722123D01*
X98293779Y-93722123D02*
X98414731Y-93691885D01*
X98414731Y-93691885D02*
X98475207Y-93661647D01*
X98475207Y-93661647D02*
X98505446Y-93631409D01*
X98505446Y-93631409D02*
X98535684Y-93570933D01*
X98535684Y-93570933D02*
X98535684Y-93510456D01*
X98535684Y-93510456D02*
X98505446Y-93449980D01*
X98505446Y-93449980D02*
X98475207Y-93419742D01*
X98475207Y-93419742D02*
X98414731Y-93389504D01*
X98414731Y-93389504D02*
X98293779Y-93359266D01*
X98293779Y-93359266D02*
X98142588Y-93359266D01*
X98142588Y-93359266D02*
X98021636Y-93389504D01*
X98021636Y-93389504D02*
X97961160Y-93419742D01*
X97961160Y-93419742D02*
X97930922Y-93449980D01*
X97930922Y-93449980D02*
X97900684Y-93510456D01*
X97880684Y-106404266D02*
X97880684Y-106797361D01*
X97880684Y-106797361D02*
X98122588Y-106585694D01*
X98122588Y-106585694D02*
X98122588Y-106676409D01*
X98122588Y-106676409D02*
X98152826Y-106736885D01*
X98152826Y-106736885D02*
X98183065Y-106767123D01*
X98183065Y-106767123D02*
X98243541Y-106797361D01*
X98243541Y-106797361D02*
X98394731Y-106797361D01*
X98394731Y-106797361D02*
X98455207Y-106767123D01*
X98455207Y-106767123D02*
X98485446Y-106736885D01*
X98485446Y-106736885D02*
X98515684Y-106676409D01*
X98515684Y-106676409D02*
X98515684Y-106494980D01*
X98515684Y-106494980D02*
X98485446Y-106434504D01*
X98485446Y-106434504D02*
X98455207Y-106404266D01*
X97880684Y-107341647D02*
X97880684Y-107220694D01*
X97880684Y-107220694D02*
X97910922Y-107160218D01*
X97910922Y-107160218D02*
X97941160Y-107129980D01*
X97941160Y-107129980D02*
X98031874Y-107069504D01*
X98031874Y-107069504D02*
X98152826Y-107039266D01*
X98152826Y-107039266D02*
X98394731Y-107039266D01*
X98394731Y-107039266D02*
X98455207Y-107069504D01*
X98455207Y-107069504D02*
X98485446Y-107099742D01*
X98485446Y-107099742D02*
X98515684Y-107160218D01*
X98515684Y-107160218D02*
X98515684Y-107281171D01*
X98515684Y-107281171D02*
X98485446Y-107341647D01*
X98485446Y-107341647D02*
X98455207Y-107371885D01*
X98455207Y-107371885D02*
X98394731Y-107402123D01*
X98394731Y-107402123D02*
X98243541Y-107402123D01*
X98243541Y-107402123D02*
X98183065Y-107371885D01*
X98183065Y-107371885D02*
X98152826Y-107341647D01*
X98152826Y-107341647D02*
X98122588Y-107281171D01*
X98122588Y-107281171D02*
X98122588Y-107160218D01*
X98122588Y-107160218D02*
X98152826Y-107099742D01*
X98152826Y-107099742D02*
X98183065Y-107069504D01*
X98183065Y-107069504D02*
X98243541Y-107039266D01*
X93500684Y-92654266D02*
X93500684Y-93047361D01*
X93500684Y-93047361D02*
X93742588Y-92835694D01*
X93742588Y-92835694D02*
X93742588Y-92926409D01*
X93742588Y-92926409D02*
X93772826Y-92986885D01*
X93772826Y-92986885D02*
X93803065Y-93017123D01*
X93803065Y-93017123D02*
X93863541Y-93047361D01*
X93863541Y-93047361D02*
X94014731Y-93047361D01*
X94014731Y-93047361D02*
X94075207Y-93017123D01*
X94075207Y-93017123D02*
X94105446Y-92986885D01*
X94105446Y-92986885D02*
X94135684Y-92926409D01*
X94135684Y-92926409D02*
X94135684Y-92744980D01*
X94135684Y-92744980D02*
X94105446Y-92684504D01*
X94105446Y-92684504D02*
X94075207Y-92654266D01*
X93500684Y-93621885D02*
X93500684Y-93319504D01*
X93500684Y-93319504D02*
X93803065Y-93289266D01*
X93803065Y-93289266D02*
X93772826Y-93319504D01*
X93772826Y-93319504D02*
X93742588Y-93379980D01*
X93742588Y-93379980D02*
X93742588Y-93531171D01*
X93742588Y-93531171D02*
X93772826Y-93591647D01*
X93772826Y-93591647D02*
X93803065Y-93621885D01*
X93803065Y-93621885D02*
X93863541Y-93652123D01*
X93863541Y-93652123D02*
X94014731Y-93652123D01*
X94014731Y-93652123D02*
X94075207Y-93621885D01*
X94075207Y-93621885D02*
X94105446Y-93591647D01*
X94105446Y-93591647D02*
X94135684Y-93531171D01*
X94135684Y-93531171D02*
X94135684Y-93379980D01*
X94135684Y-93379980D02*
X94105446Y-93319504D01*
X94105446Y-93319504D02*
X94075207Y-93289266D01*
X94105684Y-107047361D02*
X94105684Y-106684504D01*
X94105684Y-106865932D02*
X93470684Y-106865932D01*
X93470684Y-106865932D02*
X93561398Y-106805456D01*
X93561398Y-106805456D02*
X93621874Y-106744980D01*
X93621874Y-106744980D02*
X93652112Y-106684504D01*
X107103684Y-99373266D02*
X106801303Y-99161599D01*
X107103684Y-99010409D02*
X106468684Y-99010409D01*
X106468684Y-99010409D02*
X106468684Y-99252314D01*
X106468684Y-99252314D02*
X106498922Y-99312790D01*
X106498922Y-99312790D02*
X106529160Y-99343028D01*
X106529160Y-99343028D02*
X106589636Y-99373266D01*
X106589636Y-99373266D02*
X106680350Y-99373266D01*
X106680350Y-99373266D02*
X106740826Y-99343028D01*
X106740826Y-99343028D02*
X106771065Y-99312790D01*
X106771065Y-99312790D02*
X106801303Y-99252314D01*
X106801303Y-99252314D02*
X106801303Y-99010409D01*
X106771065Y-99645409D02*
X106771065Y-99857076D01*
X107103684Y-99947790D02*
X107103684Y-99645409D01*
X107103684Y-99645409D02*
X106468684Y-99645409D01*
X106468684Y-99645409D02*
X106468684Y-99947790D01*
X106468684Y-100129219D02*
X107103684Y-100340885D01*
X107103684Y-100340885D02*
X106468684Y-100552552D01*
X107043207Y-100764219D02*
X107073446Y-100794457D01*
X107073446Y-100794457D02*
X107103684Y-100764219D01*
X107103684Y-100764219D02*
X107073446Y-100733981D01*
X107073446Y-100733981D02*
X107043207Y-100764219D01*
X107043207Y-100764219D02*
X107103684Y-100764219D01*
X106468684Y-101671362D02*
X106468684Y-101731839D01*
X106468684Y-101731839D02*
X106498922Y-101792315D01*
X106498922Y-101792315D02*
X106529160Y-101822553D01*
X106529160Y-101822553D02*
X106589636Y-101852791D01*
X106589636Y-101852791D02*
X106710588Y-101883029D01*
X106710588Y-101883029D02*
X106861779Y-101883029D01*
X106861779Y-101883029D02*
X106982731Y-101852791D01*
X106982731Y-101852791D02*
X107043207Y-101822553D01*
X107043207Y-101822553D02*
X107073446Y-101792315D01*
X107073446Y-101792315D02*
X107103684Y-101731839D01*
X107103684Y-101731839D02*
X107103684Y-101671362D01*
X107103684Y-101671362D02*
X107073446Y-101610886D01*
X107073446Y-101610886D02*
X107043207Y-101580648D01*
X107043207Y-101580648D02*
X106982731Y-101550410D01*
X106982731Y-101550410D02*
X106861779Y-101520172D01*
X106861779Y-101520172D02*
X106710588Y-101520172D01*
X106710588Y-101520172D02*
X106589636Y-101550410D01*
X106589636Y-101550410D02*
X106529160Y-101580648D01*
X106529160Y-101580648D02*
X106498922Y-101610886D01*
X106498922Y-101610886D02*
X106468684Y-101671362D01*
X98192159Y-99940733D02*
X98645730Y-99940733D01*
X98645730Y-99940733D02*
X98736444Y-99910494D01*
X98736444Y-99910494D02*
X98796921Y-99850018D01*
X98796921Y-99850018D02*
X98827159Y-99759304D01*
X98827159Y-99759304D02*
X98827159Y-99698828D01*
X98252635Y-100212876D02*
X98222397Y-100243114D01*
X98222397Y-100243114D02*
X98192159Y-100303590D01*
X98192159Y-100303590D02*
X98192159Y-100454781D01*
X98192159Y-100454781D02*
X98222397Y-100515257D01*
X98222397Y-100515257D02*
X98252635Y-100545495D01*
X98252635Y-100545495D02*
X98313111Y-100575733D01*
X98313111Y-100575733D02*
X98373587Y-100575733D01*
X98373587Y-100575733D02*
X98464301Y-100545495D01*
X98464301Y-100545495D02*
X98827159Y-100182638D01*
X98827159Y-100182638D02*
X98827159Y-100575733D01*
D11*
%TO.C,J2*%
X96250000Y-92420000D02*
X95750000Y-92420000D01*
X96250000Y-107580000D02*
X95750000Y-107580000D01*
%TO.C,G\u002A\u002A\u002A*%
G36*
X104569903Y-94655102D02*
G01*
X104569903Y-94754077D01*
X104069821Y-94754077D01*
X103569739Y-94754077D01*
X103569739Y-94655102D01*
X103569739Y-94556128D01*
X104069821Y-94556128D01*
X104569903Y-94556128D01*
X104569903Y-94655102D01*
G37*
G36*
X104590740Y-95009327D02*
G01*
X104590740Y-95108302D01*
X104085449Y-95108302D01*
X103580158Y-95108302D01*
X103580158Y-95009327D01*
X103580158Y-94910353D01*
X104085449Y-94910353D01*
X104590740Y-94910353D01*
X104590740Y-95009327D01*
G37*
G36*
X104580322Y-95373970D02*
G01*
X104580322Y-95472945D01*
X104075031Y-95472945D01*
X103569739Y-95472945D01*
X103569739Y-95373970D01*
X103569739Y-95274996D01*
X104075031Y-95274996D01*
X104580322Y-95274996D01*
X104580322Y-95373970D01*
G37*
G36*
X104163587Y-96014700D02*
G01*
X104163587Y-96421017D01*
X104090658Y-96421017D01*
X104017730Y-96421017D01*
X104017730Y-96014700D01*
X104017730Y-95608384D01*
X104090658Y-95608384D01*
X104163587Y-95608384D01*
X104163587Y-96014700D01*
G37*
G36*
X103736433Y-96035537D02*
G01*
X103736433Y-96462691D01*
X103658296Y-96462691D01*
X103580158Y-96462691D01*
X103580158Y-96035537D01*
X103580158Y-95608384D01*
X103658296Y-95608384D01*
X103736433Y-95608384D01*
X103736433Y-96035537D01*
G37*
G36*
X104580322Y-96035537D02*
G01*
X104580322Y-96462691D01*
X104507393Y-96462691D01*
X104434465Y-96462691D01*
X104434465Y-96035537D01*
X104434465Y-95608384D01*
X104507393Y-95608384D01*
X104580322Y-95608384D01*
X104580322Y-96035537D01*
G37*
G36*
X104569903Y-102182379D02*
G01*
X104569903Y-102276144D01*
X104069821Y-102276144D01*
X103569739Y-102276144D01*
X103569739Y-102182379D01*
X103569739Y-102088614D01*
X104069821Y-102088614D01*
X104569903Y-102088614D01*
X104569903Y-102182379D01*
G37*
G36*
X103726015Y-105224545D02*
G01*
X103726015Y-105485004D01*
X104153168Y-105485004D01*
X104580322Y-105485004D01*
X104580322Y-105583979D01*
X104580322Y-105682953D01*
X104153168Y-105682953D01*
X103726015Y-105682953D01*
X103726015Y-105943413D01*
X103726015Y-106203872D01*
X103653086Y-106203872D01*
X103580158Y-106203872D01*
X103580158Y-105583979D01*
X103580158Y-104964085D01*
X103653086Y-104964085D01*
X103726015Y-104964085D01*
X103726015Y-105224545D01*
G37*
G36*
X104580322Y-97983773D02*
G01*
X104580322Y-98077539D01*
X104351118Y-98077539D01*
X104121913Y-98077539D01*
X104121913Y-98489065D01*
X104121913Y-98900591D01*
X104351118Y-98900591D01*
X104580322Y-98900591D01*
X104580322Y-98994356D01*
X104580322Y-99088121D01*
X104075031Y-99088121D01*
X103569739Y-99088121D01*
X103569739Y-98994356D01*
X103569739Y-98900591D01*
X103767689Y-98900591D01*
X103965638Y-98900591D01*
X103965638Y-98489065D01*
X103965638Y-98077539D01*
X103767689Y-98077539D01*
X103569739Y-98077539D01*
X103569739Y-97983773D01*
X103569739Y-97890008D01*
X104075031Y-97890008D01*
X104580322Y-97890008D01*
X104580322Y-97983773D01*
G37*
G36*
X104412265Y-102465711D02*
G01*
X104474902Y-102466116D01*
X104523025Y-102466714D01*
X104554526Y-102467494D01*
X104567299Y-102468448D01*
X104567395Y-102468488D01*
X104570496Y-102474240D01*
X104573097Y-102489405D01*
X104575232Y-102515411D01*
X104576939Y-102553685D01*
X104578254Y-102605655D01*
X104579213Y-102672750D01*
X104579853Y-102756397D01*
X104580211Y-102858023D01*
X104580322Y-102979058D01*
X104580322Y-103484676D01*
X104502184Y-103484676D01*
X104424046Y-103484676D01*
X104424046Y-103073150D01*
X104424046Y-102661624D01*
X103996502Y-102661624D01*
X103568957Y-102661624D01*
X103571953Y-102565254D01*
X103574949Y-102468884D01*
X104064612Y-102466170D01*
X104158338Y-102465744D01*
X104251876Y-102465515D01*
X104337220Y-102465507D01*
X104412265Y-102465711D01*
G37*
G36*
X104270375Y-99266861D02*
G01*
X104290255Y-99267371D01*
X104346378Y-99269402D01*
X104386833Y-99272276D01*
X104415620Y-99276527D01*
X104436741Y-99282684D01*
X104454197Y-99291280D01*
X104496041Y-99323731D01*
X104536958Y-99377360D01*
X104563621Y-99442346D01*
X104570178Y-99476363D01*
X104575271Y-99528020D01*
X104578383Y-99596820D01*
X104579636Y-99684573D01*
X104580322Y-99869499D01*
X104502856Y-99869499D01*
X104425389Y-99869499D01*
X104422113Y-99686236D01*
X104421648Y-99658963D01*
X104420171Y-99591926D01*
X104416930Y-99542230D01*
X104409877Y-99507286D01*
X104396965Y-99484502D01*
X104376147Y-99471290D01*
X104345375Y-99465059D01*
X104302602Y-99463220D01*
X104245780Y-99463183D01*
X104121913Y-99463183D01*
X104121913Y-99363231D01*
X104121913Y-99263280D01*
X104270375Y-99266861D01*
G37*
G36*
X103727948Y-100136093D02*
G01*
X103731224Y-100319340D01*
X103760456Y-100344461D01*
X103768245Y-100350865D01*
X103782034Y-100359502D01*
X103799188Y-100364980D01*
X103824076Y-100368011D01*
X103861063Y-100369308D01*
X103914518Y-100369582D01*
X104039348Y-100369582D01*
X104036353Y-100465952D01*
X104033357Y-100562321D01*
X103887500Y-100561943D01*
X103847590Y-100561724D01*
X103798774Y-100560709D01*
X103763694Y-100558400D01*
X103738000Y-100554255D01*
X103717343Y-100547734D01*
X103697376Y-100538296D01*
X103695404Y-100537249D01*
X103658000Y-100512154D01*
X103628253Y-100479861D01*
X103605463Y-100438147D01*
X103588932Y-100384784D01*
X103577961Y-100317549D01*
X103571851Y-100234218D01*
X103569902Y-100132563D01*
X103569739Y-99952846D01*
X103647206Y-99952846D01*
X103724672Y-99952846D01*
X103727948Y-100136093D01*
G37*
G36*
X104578650Y-100163343D02*
G01*
X104578073Y-100196876D01*
X104576731Y-100260958D01*
X104575052Y-100309164D01*
X104572639Y-100344956D01*
X104569096Y-100371794D01*
X104564027Y-100393141D01*
X104557034Y-100412458D01*
X104547721Y-100433206D01*
X104540809Y-100447274D01*
X104514463Y-100489138D01*
X104482496Y-100520539D01*
X104441943Y-100542766D01*
X104389839Y-100557105D01*
X104323220Y-100564846D01*
X104239120Y-100567276D01*
X104121913Y-100567531D01*
X104121913Y-100468556D01*
X104121913Y-100369582D01*
X104240873Y-100369582D01*
X104283590Y-100369172D01*
X104327196Y-100367812D01*
X104359846Y-100365726D01*
X104376601Y-100363147D01*
X104382824Y-100360337D01*
X104395738Y-100349857D01*
X104405477Y-100332199D01*
X104412608Y-100304633D01*
X104417702Y-100264426D01*
X104421325Y-100208849D01*
X104424046Y-100135168D01*
X104429255Y-99958056D01*
X104505721Y-99954976D01*
X104582187Y-99951896D01*
X104578650Y-100163343D01*
G37*
G36*
X104036365Y-99360640D02*
G01*
X104033357Y-99457974D01*
X103918755Y-99460543D01*
X103880829Y-99461651D01*
X103835719Y-99463675D01*
X103800603Y-99466065D01*
X103780901Y-99468508D01*
X103773940Y-99470483D01*
X103756817Y-99480390D01*
X103744141Y-99498409D01*
X103735318Y-99527073D01*
X103729753Y-99568918D01*
X103726850Y-99626478D01*
X103726015Y-99702288D01*
X103726015Y-99869499D01*
X103646790Y-99869499D01*
X103567565Y-99869499D01*
X103571257Y-99663737D01*
X103572128Y-99616367D01*
X103573484Y-99557429D01*
X103575242Y-99513516D01*
X103577863Y-99481089D01*
X103581809Y-99456609D01*
X103587541Y-99436537D01*
X103595518Y-99417335D01*
X103606204Y-99395463D01*
X103607855Y-99392196D01*
X103641748Y-99339300D01*
X103682608Y-99301698D01*
X103693649Y-99294161D01*
X103710215Y-99284244D01*
X103727435Y-99277407D01*
X103749344Y-99272951D01*
X103779978Y-99270177D01*
X103823373Y-99268384D01*
X103883565Y-99266875D01*
X104039374Y-99263306D01*
X104036365Y-99360640D01*
G37*
G36*
X104455826Y-96631209D02*
G01*
X104474173Y-96643663D01*
X104516897Y-96688658D01*
X104549124Y-96748037D01*
X104568626Y-96818110D01*
X104569313Y-96823406D01*
X104571260Y-96852344D01*
X104572973Y-96898689D01*
X104574410Y-96959867D01*
X104575530Y-97033300D01*
X104576289Y-97116413D01*
X104576645Y-97206628D01*
X104576557Y-97301370D01*
X104575113Y-97728523D01*
X104499905Y-97731578D01*
X104424698Y-97734632D01*
X104421767Y-97290492D01*
X104418837Y-96846351D01*
X104389606Y-96821215D01*
X104360374Y-96796079D01*
X104070395Y-96796079D01*
X103997044Y-96796114D01*
X103920521Y-96796549D01*
X103860825Y-96797928D01*
X103815711Y-96800796D01*
X103782932Y-96805699D01*
X103760244Y-96813181D01*
X103745400Y-96823787D01*
X103736155Y-96838063D01*
X103730262Y-96856553D01*
X103725477Y-96879804D01*
X103725188Y-96881506D01*
X103723180Y-96904941D01*
X103721316Y-96946251D01*
X103719649Y-97002840D01*
X103718235Y-97072110D01*
X103717127Y-97151461D01*
X103716381Y-97238298D01*
X103716050Y-97330020D01*
X103715597Y-97733732D01*
X103642668Y-97733732D01*
X103569739Y-97733732D01*
X103569739Y-97286255D01*
X103569827Y-97216717D01*
X103570424Y-97102111D01*
X103571565Y-97003261D01*
X103573228Y-96921182D01*
X103575390Y-96856889D01*
X103578027Y-96811399D01*
X103581117Y-96785725D01*
X103585823Y-96767813D01*
X103612306Y-96710431D01*
X103651940Y-96660716D01*
X103699969Y-96625093D01*
X103703747Y-96623151D01*
X103716200Y-96617504D01*
X103730238Y-96613044D01*
X103748268Y-96609632D01*
X103772696Y-96607127D01*
X103805928Y-96605391D01*
X103850372Y-96604284D01*
X103908432Y-96603666D01*
X103982516Y-96603397D01*
X104075031Y-96603339D01*
X104408419Y-96603339D01*
X104455826Y-96631209D01*
G37*
G36*
X103726015Y-100796735D02*
G01*
X104069821Y-100796735D01*
X104569903Y-100796735D01*
X104569903Y-100895710D01*
X104569903Y-100994684D01*
X104387582Y-100994684D01*
X104205260Y-100994684D01*
X104205260Y-101346720D01*
X104205192Y-101412837D01*
X104204766Y-101502171D01*
X104203872Y-101574429D01*
X104202419Y-101631916D01*
X104200319Y-101676937D01*
X104197482Y-101711796D01*
X104193820Y-101738800D01*
X104189243Y-101760252D01*
X104179343Y-101793974D01*
X104155847Y-101847589D01*
X104124455Y-101887802D01*
X104081938Y-101919407D01*
X104077890Y-101921776D01*
X104058230Y-101932450D01*
X104039562Y-101939746D01*
X104017521Y-101944304D01*
X103987741Y-101946765D01*
X103945856Y-101947772D01*
X103887500Y-101947965D01*
X103830402Y-101947742D01*
X103787554Y-101946659D01*
X103756969Y-101944126D01*
X103734287Y-101939552D01*
X103715146Y-101932347D01*
X103695187Y-101921920D01*
X103680989Y-101913046D01*
X103635782Y-101870201D01*
X103601329Y-101813136D01*
X103580333Y-101745990D01*
X103579891Y-101743316D01*
X103577467Y-101716247D01*
X103575293Y-101670841D01*
X103573413Y-101609229D01*
X103571873Y-101533539D01*
X103570718Y-101445902D01*
X103569991Y-101348447D01*
X103569739Y-101243303D01*
X103569739Y-100994684D01*
X103726015Y-100994684D01*
X103726015Y-101344501D01*
X103726015Y-101694318D01*
X103756469Y-101724772D01*
X103759362Y-101727651D01*
X103774015Y-101740748D01*
X103789040Y-101748866D01*
X103809551Y-101753192D01*
X103840666Y-101754915D01*
X103887500Y-101755225D01*
X103897012Y-101755221D01*
X103940740Y-101754750D01*
X103969640Y-101752659D01*
X103988828Y-101747758D01*
X104003419Y-101738859D01*
X104018531Y-101724772D01*
X104048985Y-101694318D01*
X104048985Y-101344501D01*
X104048985Y-100994684D01*
X103887500Y-100994684D01*
X103726015Y-100994684D01*
X103569739Y-100994684D01*
X103569739Y-100796735D01*
X103726015Y-100796735D01*
G37*
G36*
X105162962Y-99817408D02*
G01*
X105513268Y-99817408D01*
X105569279Y-99817408D01*
X106020048Y-99817408D01*
X106015509Y-100278421D01*
X106014668Y-100359853D01*
X106013326Y-100466156D01*
X106011699Y-100554847D01*
X106009573Y-100627861D01*
X106006733Y-100687135D01*
X106002964Y-100734605D01*
X105998053Y-100772207D01*
X105991784Y-100801877D01*
X105983943Y-100825552D01*
X105974315Y-100845166D01*
X105962686Y-100862658D01*
X105948840Y-100879962D01*
X105929918Y-100900822D01*
X105905261Y-100921127D01*
X105876824Y-100934676D01*
X105840359Y-100942763D01*
X105791615Y-100946683D01*
X105726343Y-100947729D01*
X105674752Y-100947097D01*
X105619428Y-100943462D01*
X105578485Y-100935506D01*
X105548258Y-100921994D01*
X105525082Y-100901694D01*
X105505293Y-100873375D01*
X105483658Y-100836706D01*
X105463964Y-100867809D01*
X105462030Y-100870803D01*
X105439939Y-100896980D01*
X105411671Y-100914967D01*
X105373656Y-100925829D01*
X105322321Y-100930634D01*
X105254095Y-100930446D01*
X105209733Y-100928431D01*
X105156017Y-100922170D01*
X105116275Y-100910185D01*
X105086417Y-100890339D01*
X105062354Y-100860495D01*
X105039998Y-100818515D01*
X105012684Y-100760271D01*
X105009586Y-100288839D01*
X105007720Y-100004938D01*
X105162962Y-100004938D01*
X105165961Y-100360012D01*
X105166234Y-100394633D01*
X105166893Y-100488115D01*
X105167768Y-100563372D01*
X105169487Y-100622368D01*
X105172681Y-100667067D01*
X105177977Y-100699434D01*
X105186006Y-100721432D01*
X105197396Y-100735026D01*
X105212776Y-100742180D01*
X105232775Y-100744858D01*
X105258023Y-100745024D01*
X105289148Y-100744643D01*
X105328520Y-100743961D01*
X105357015Y-100740894D01*
X105375247Y-100734221D01*
X105388736Y-100722726D01*
X105390528Y-100720662D01*
X105395601Y-100713037D01*
X105399671Y-100702260D01*
X105402876Y-100686120D01*
X105405353Y-100662407D01*
X105407238Y-100628910D01*
X105408667Y-100583419D01*
X105409777Y-100523723D01*
X105410705Y-100447612D01*
X105411587Y-100352874D01*
X105414590Y-100004938D01*
X105569279Y-100004938D01*
X105572278Y-100360094D01*
X105575277Y-100715249D01*
X105599872Y-100735155D01*
X105609707Y-100741942D01*
X105630689Y-100749911D01*
X105661398Y-100753944D01*
X105707346Y-100755061D01*
X105742132Y-100754484D01*
X105784645Y-100750303D01*
X105813435Y-100740557D01*
X105832800Y-100723468D01*
X105847036Y-100697256D01*
X105848300Y-100693943D01*
X105852390Y-100677495D01*
X105855616Y-100652882D01*
X105858064Y-100617994D01*
X105859819Y-100570719D01*
X105860967Y-100508944D01*
X105861592Y-100430559D01*
X105861782Y-100333452D01*
X105861782Y-100004938D01*
X105715531Y-100004938D01*
X105569279Y-100004938D01*
X105414590Y-100004938D01*
X105288776Y-100004938D01*
X105162962Y-100004938D01*
X105007720Y-100004938D01*
X105006488Y-99817408D01*
X105162962Y-99817408D01*
G37*
G36*
X105018737Y-100981993D02*
G01*
X105026818Y-100989764D01*
X105032096Y-100995562D01*
X105050845Y-101016599D01*
X105080460Y-101050066D01*
X105119148Y-101093933D01*
X105165119Y-101146167D01*
X105216582Y-101204737D01*
X105271746Y-101267611D01*
X105306941Y-101307700D01*
X105358947Y-101366731D01*
X105405648Y-101419492D01*
X105445363Y-101464098D01*
X105476411Y-101498664D01*
X105497113Y-101521305D01*
X105505789Y-101530138D01*
X105512057Y-101525914D01*
X105530785Y-101507849D01*
X105560200Y-101477254D01*
X105598680Y-101435879D01*
X105644600Y-101385472D01*
X105696338Y-101327783D01*
X105752270Y-101264561D01*
X105798212Y-101212375D01*
X105850982Y-101152655D01*
X105898211Y-101099447D01*
X105938260Y-101054585D01*
X105969494Y-101019901D01*
X105990275Y-100997227D01*
X105998966Y-100988396D01*
X105999052Y-100988349D01*
X106002390Y-100996388D01*
X106005120Y-101021354D01*
X106006963Y-101059430D01*
X106007639Y-101106802D01*
X106007639Y-101230568D01*
X105815025Y-101443409D01*
X105810563Y-101448342D01*
X105760544Y-101503911D01*
X105715587Y-101554346D01*
X105677486Y-101597595D01*
X105648039Y-101631606D01*
X105629039Y-101654326D01*
X105622285Y-101663702D01*
X105622350Y-101663979D01*
X105630309Y-101674798D01*
X105650298Y-101698802D01*
X105680533Y-101733937D01*
X105719234Y-101778150D01*
X105764617Y-101829387D01*
X105814899Y-101885594D01*
X106007639Y-102100036D01*
X106007639Y-102226787D01*
X106007634Y-102236244D01*
X106007233Y-102286418D01*
X106005949Y-102318946D01*
X106003422Y-102336592D01*
X105999295Y-102342117D01*
X105993212Y-102338282D01*
X105987179Y-102331674D01*
X105968090Y-102310461D01*
X105938113Y-102277005D01*
X105898974Y-102233237D01*
X105852398Y-102181088D01*
X105800112Y-102122487D01*
X105743841Y-102059364D01*
X105701216Y-102011734D01*
X105648508Y-101953434D01*
X105601310Y-101901903D01*
X105561277Y-101858913D01*
X105530063Y-101826235D01*
X105509321Y-101805642D01*
X105500707Y-101798905D01*
X105497660Y-101801574D01*
X105482408Y-101817629D01*
X105456123Y-101846504D01*
X105420504Y-101886297D01*
X105377248Y-101935103D01*
X105328055Y-101991021D01*
X105274622Y-102052149D01*
X105248359Y-102082270D01*
X105195318Y-102142991D01*
X105146577Y-102198649D01*
X105104011Y-102247110D01*
X105069493Y-102286244D01*
X105044898Y-102313918D01*
X105032101Y-102327999D01*
X105007475Y-102353809D01*
X105007594Y-102229025D01*
X105007713Y-102104241D01*
X105149217Y-101947965D01*
X105196094Y-101896121D01*
X105243267Y-101843812D01*
X105286558Y-101795678D01*
X105322594Y-101755470D01*
X105348001Y-101726939D01*
X105405279Y-101662188D01*
X105206377Y-101442913D01*
X105007475Y-101223638D01*
X105007475Y-101096428D01*
X105007576Y-101046655D01*
X105008232Y-101010391D01*
X105009965Y-100989439D01*
X105013293Y-100980929D01*
X105018737Y-100981993D01*
G37*
G36*
X105297604Y-98457960D02*
G01*
X105362788Y-98462034D01*
X105412732Y-98473091D01*
X105451496Y-98493036D01*
X105483140Y-98523772D01*
X105511727Y-98567203D01*
X105544022Y-98624504D01*
X105549231Y-99015193D01*
X105550131Y-99080912D01*
X105551612Y-99174460D01*
X105553276Y-99250377D01*
X105555355Y-99310661D01*
X105558078Y-99357314D01*
X105561677Y-99392335D01*
X105566382Y-99417723D01*
X105572424Y-99435479D01*
X105580033Y-99447601D01*
X105589440Y-99456089D01*
X105600877Y-99462944D01*
X105604839Y-99464534D01*
X105629230Y-99469158D01*
X105666206Y-99472387D01*
X105709450Y-99473601D01*
X105726901Y-99473540D01*
X105765987Y-99472298D01*
X105791940Y-99468519D01*
X105810483Y-99460981D01*
X105827341Y-99448465D01*
X105856573Y-99423330D01*
X105859583Y-98953593D01*
X105862593Y-98483856D01*
X105941281Y-98483856D01*
X106019969Y-98483856D01*
X106015843Y-98970915D01*
X106015314Y-99032803D01*
X106014364Y-99136220D01*
X106013414Y-99221817D01*
X106012363Y-99291575D01*
X106011113Y-99347474D01*
X106009562Y-99391494D01*
X106007613Y-99425617D01*
X106005165Y-99451821D01*
X106002119Y-99472089D01*
X105998375Y-99488399D01*
X105993834Y-99502732D01*
X105988396Y-99517070D01*
X105970625Y-99553525D01*
X105934284Y-99602176D01*
X105890710Y-99638371D01*
X105844172Y-99657939D01*
X105826966Y-99660431D01*
X105789106Y-99663340D01*
X105741283Y-99665211D01*
X105689879Y-99665722D01*
X105637930Y-99664232D01*
X105578156Y-99657356D01*
X105532142Y-99643735D01*
X105496021Y-99622079D01*
X105465922Y-99591099D01*
X105453017Y-99574384D01*
X105441382Y-99557407D01*
X105431983Y-99539537D01*
X105424543Y-99518559D01*
X105418780Y-99492256D01*
X105414416Y-99458412D01*
X105411172Y-99414813D01*
X105408767Y-99359242D01*
X105406922Y-99289483D01*
X105405358Y-99203321D01*
X105403796Y-99098540D01*
X105403185Y-99056947D01*
X105401569Y-98958581D01*
X105399825Y-98878380D01*
X105397742Y-98814395D01*
X105395108Y-98764680D01*
X105391713Y-98727287D01*
X105387346Y-98700268D01*
X105381795Y-98681676D01*
X105374849Y-98669563D01*
X105366297Y-98661982D01*
X105355928Y-98656984D01*
X105341066Y-98654063D01*
X105310495Y-98651526D01*
X105273048Y-98650550D01*
X105242270Y-98651093D01*
X105216441Y-98654460D01*
X105199663Y-98662742D01*
X105185344Y-98678000D01*
X105184616Y-98678930D01*
X105179538Y-98686145D01*
X105175358Y-98694792D01*
X105171989Y-98706812D01*
X105169345Y-98724146D01*
X105167336Y-98748733D01*
X105165876Y-98782514D01*
X105164878Y-98827429D01*
X105164254Y-98885420D01*
X105163916Y-98958426D01*
X105163778Y-99048388D01*
X105163751Y-99157246D01*
X105163751Y-99609040D01*
X105085613Y-99609040D01*
X105007475Y-99609040D01*
X105007475Y-99152820D01*
X105007502Y-99092283D01*
X105007798Y-98980567D01*
X105008577Y-98886844D01*
X105010031Y-98809192D01*
X105012352Y-98745689D01*
X105015730Y-98694414D01*
X105020357Y-98653446D01*
X105026425Y-98620862D01*
X105034124Y-98594742D01*
X105043648Y-98573164D01*
X105055185Y-98554206D01*
X105068930Y-98535947D01*
X105072454Y-98531607D01*
X105101817Y-98500154D01*
X105132178Y-98478880D01*
X105168446Y-98465953D01*
X105215535Y-98459540D01*
X105278353Y-98457810D01*
X105297604Y-98457960D01*
G37*
G36*
X104117506Y-103594091D02*
G01*
X104203084Y-103594324D01*
X104225820Y-103594515D01*
X104271179Y-103594895D01*
X104324060Y-103595910D01*
X104363996Y-103597476D01*
X104393256Y-103599699D01*
X104414109Y-103602685D01*
X104428825Y-103606540D01*
X104439674Y-103611371D01*
X104472519Y-103633707D01*
X104518451Y-103683970D01*
X104550351Y-103747178D01*
X104552536Y-103753653D01*
X104556826Y-103768695D01*
X104560307Y-103786066D01*
X104563047Y-103807822D01*
X104565113Y-103836020D01*
X104566573Y-103872716D01*
X104567496Y-103919966D01*
X104567949Y-103979827D01*
X104568001Y-104054354D01*
X104567720Y-104145605D01*
X104567173Y-104255636D01*
X104564694Y-104708835D01*
X104533963Y-104764311D01*
X104533541Y-104765071D01*
X104499029Y-104813506D01*
X104455826Y-104847658D01*
X104408419Y-104875529D01*
X104069821Y-104875529D01*
X103731224Y-104875529D01*
X103682510Y-104846892D01*
X103654580Y-104827829D01*
X103628001Y-104799323D01*
X103604372Y-104758336D01*
X103574949Y-104698417D01*
X103571915Y-104257173D01*
X103571770Y-104234799D01*
X103720806Y-104234799D01*
X103720807Y-104259937D01*
X103720866Y-104354997D01*
X103721096Y-104431859D01*
X103721613Y-104492661D01*
X103722528Y-104539541D01*
X103723956Y-104574636D01*
X103726011Y-104600084D01*
X103728805Y-104618024D01*
X103732452Y-104630592D01*
X103737066Y-104639926D01*
X103742761Y-104648165D01*
X103764716Y-104677580D01*
X104063511Y-104680345D01*
X104109866Y-104680690D01*
X104199442Y-104680772D01*
X104272565Y-104679957D01*
X104328145Y-104678274D01*
X104365088Y-104675748D01*
X104382302Y-104672409D01*
X104385267Y-104670482D01*
X104401061Y-104650989D01*
X104413114Y-104622761D01*
X104415114Y-104612047D01*
X104418148Y-104579028D01*
X104420555Y-104530589D01*
X104422350Y-104469753D01*
X104423547Y-104399540D01*
X104424157Y-104322972D01*
X104424197Y-104243068D01*
X104423678Y-104162849D01*
X104422615Y-104085337D01*
X104421020Y-104013553D01*
X104418909Y-103950517D01*
X104416294Y-103899250D01*
X104413189Y-103862772D01*
X104409607Y-103844106D01*
X104404156Y-103831752D01*
X104396781Y-103818050D01*
X104387268Y-103807459D01*
X104373278Y-103799609D01*
X104352476Y-103794128D01*
X104322524Y-103790644D01*
X104281084Y-103788785D01*
X104225820Y-103788182D01*
X104154393Y-103788461D01*
X104064468Y-103789251D01*
X103764716Y-103792018D01*
X103742761Y-103821432D01*
X103741324Y-103823378D01*
X103735893Y-103831682D01*
X103731515Y-103841582D01*
X103728078Y-103855217D01*
X103725467Y-103874724D01*
X103723570Y-103902241D01*
X103722272Y-103939906D01*
X103721460Y-103989857D01*
X103721021Y-104054230D01*
X103720841Y-104135165D01*
X103720806Y-104234799D01*
X103571770Y-104234799D01*
X103571503Y-104193540D01*
X103571040Y-104086034D01*
X103571184Y-103996364D01*
X103572144Y-103922558D01*
X103574126Y-103862643D01*
X103577339Y-103814648D01*
X103581989Y-103776598D01*
X103588285Y-103746523D01*
X103596434Y-103722449D01*
X103606643Y-103702404D01*
X103619121Y-103684416D01*
X103634074Y-103666512D01*
X103642652Y-103656753D01*
X103658556Y-103639570D01*
X103674154Y-103625855D01*
X103691796Y-103615215D01*
X103713829Y-103607262D01*
X103742604Y-103601603D01*
X103780469Y-103597849D01*
X103829774Y-103595610D01*
X103892869Y-103594493D01*
X103972101Y-103594110D01*
X104069821Y-103594069D01*
X104117506Y-103594091D01*
G37*
%TD*%
M02*
