%TF.GenerationSoftware,KiCad,Pcbnew,7.0.10*%
%TF.CreationDate,2024-02-01T11:04:59-05:00*%
%TF.ProjectId,quad_payload_adapter,71756164-5f70-4617-996c-6f61645f6164,rev?*%
%TF.SameCoordinates,Original*%
%TF.FileFunction,Legend,Top*%
%TF.FilePolarity,Positive*%
%FSLAX46Y46*%
G04 Gerber Fmt 4.6, Leading zero omitted, Abs format (unit mm)*
G04 Created by KiCad (PCBNEW 7.0.10) date 2024-02-01 11:04:59*
%MOMM*%
%LPD*%
G01*
G04 APERTURE LIST*
%ADD10C,0.127000*%
%ADD11C,0.152400*%
%ADD12C,0.120000*%
%ADD13C,0.200000*%
G04 APERTURE END LIST*
D10*
X101765099Y-116894779D02*
X102248909Y-116894779D01*
X102007004Y-117136684D02*
X102007004Y-116652874D01*
X102460575Y-116501684D02*
X102672241Y-117136684D01*
X102672241Y-117136684D02*
X102883908Y-116501684D01*
X103307242Y-116804065D02*
X103397956Y-116834303D01*
X103397956Y-116834303D02*
X103428194Y-116864541D01*
X103428194Y-116864541D02*
X103458432Y-116925017D01*
X103458432Y-116925017D02*
X103458432Y-117015731D01*
X103458432Y-117015731D02*
X103428194Y-117076207D01*
X103428194Y-117076207D02*
X103397956Y-117106446D01*
X103397956Y-117106446D02*
X103337480Y-117136684D01*
X103337480Y-117136684D02*
X103095575Y-117136684D01*
X103095575Y-117136684D02*
X103095575Y-116501684D01*
X103095575Y-116501684D02*
X103307242Y-116501684D01*
X103307242Y-116501684D02*
X103367718Y-116531922D01*
X103367718Y-116531922D02*
X103397956Y-116562160D01*
X103397956Y-116562160D02*
X103428194Y-116622636D01*
X103428194Y-116622636D02*
X103428194Y-116683112D01*
X103428194Y-116683112D02*
X103397956Y-116743588D01*
X103397956Y-116743588D02*
X103367718Y-116773826D01*
X103367718Y-116773826D02*
X103307242Y-116804065D01*
X103307242Y-116804065D02*
X103095575Y-116804065D01*
X103700337Y-116955255D02*
X104002718Y-116955255D01*
X103639861Y-117136684D02*
X103851527Y-116501684D01*
X103851527Y-116501684D02*
X104063194Y-117136684D01*
X104184147Y-116501684D02*
X104547004Y-116501684D01*
X104365575Y-117136684D02*
X104365575Y-116501684D01*
X104667957Y-116501684D02*
X105030814Y-116501684D01*
X104849385Y-117136684D02*
X104849385Y-116501684D01*
X99161600Y-85474979D02*
X99645410Y-85474979D01*
X99403505Y-85716884D02*
X99403505Y-85233074D01*
X99887314Y-85081884D02*
X100280409Y-85081884D01*
X100280409Y-85081884D02*
X100068742Y-85323788D01*
X100068742Y-85323788D02*
X100159457Y-85323788D01*
X100159457Y-85323788D02*
X100219933Y-85354026D01*
X100219933Y-85354026D02*
X100250171Y-85384265D01*
X100250171Y-85384265D02*
X100280409Y-85444741D01*
X100280409Y-85444741D02*
X100280409Y-85595931D01*
X100280409Y-85595931D02*
X100250171Y-85656407D01*
X100250171Y-85656407D02*
X100219933Y-85686646D01*
X100219933Y-85686646D02*
X100159457Y-85716884D01*
X100159457Y-85716884D02*
X99978028Y-85716884D01*
X99978028Y-85716884D02*
X99917552Y-85686646D01*
X99917552Y-85686646D02*
X99887314Y-85656407D01*
X100552552Y-85656407D02*
X100582790Y-85686646D01*
X100582790Y-85686646D02*
X100552552Y-85716884D01*
X100552552Y-85716884D02*
X100522314Y-85686646D01*
X100522314Y-85686646D02*
X100552552Y-85656407D01*
X100552552Y-85656407D02*
X100552552Y-85716884D01*
X100794457Y-85081884D02*
X101187552Y-85081884D01*
X101187552Y-85081884D02*
X100975885Y-85323788D01*
X100975885Y-85323788D02*
X101066600Y-85323788D01*
X101066600Y-85323788D02*
X101127076Y-85354026D01*
X101127076Y-85354026D02*
X101157314Y-85384265D01*
X101157314Y-85384265D02*
X101187552Y-85444741D01*
X101187552Y-85444741D02*
X101187552Y-85595931D01*
X101187552Y-85595931D02*
X101157314Y-85656407D01*
X101157314Y-85656407D02*
X101127076Y-85686646D01*
X101127076Y-85686646D02*
X101066600Y-85716884D01*
X101066600Y-85716884D02*
X100885171Y-85716884D01*
X100885171Y-85716884D02*
X100824695Y-85686646D01*
X100824695Y-85686646D02*
X100794457Y-85656407D01*
X101368981Y-85081884D02*
X101580647Y-85716884D01*
X101580647Y-85716884D02*
X101792314Y-85081884D01*
X100635684Y-99150476D02*
X100000684Y-99150476D01*
X100000684Y-99150476D02*
X100454255Y-98938809D01*
X100454255Y-98938809D02*
X100000684Y-98727143D01*
X100000684Y-98727143D02*
X100635684Y-98727143D01*
X100635684Y-98424762D02*
X100000684Y-98424762D01*
X100635684Y-98122381D02*
X100000684Y-98122381D01*
X100000684Y-98122381D02*
X100000684Y-97880476D01*
X100000684Y-97880476D02*
X100030922Y-97820000D01*
X100030922Y-97820000D02*
X100061160Y-97789762D01*
X100061160Y-97789762D02*
X100121636Y-97759524D01*
X100121636Y-97759524D02*
X100212350Y-97759524D01*
X100212350Y-97759524D02*
X100272826Y-97789762D01*
X100272826Y-97789762D02*
X100303065Y-97820000D01*
X100303065Y-97820000D02*
X100333303Y-97880476D01*
X100333303Y-97880476D02*
X100333303Y-98122381D01*
X100635684Y-97487381D02*
X100000684Y-97487381D01*
X99970446Y-96731429D02*
X100786874Y-97275714D01*
X100575207Y-96156905D02*
X100605446Y-96187143D01*
X100605446Y-96187143D02*
X100635684Y-96277857D01*
X100635684Y-96277857D02*
X100635684Y-96338333D01*
X100635684Y-96338333D02*
X100605446Y-96429048D01*
X100605446Y-96429048D02*
X100544969Y-96489524D01*
X100544969Y-96489524D02*
X100484493Y-96519762D01*
X100484493Y-96519762D02*
X100363541Y-96550000D01*
X100363541Y-96550000D02*
X100272826Y-96550000D01*
X100272826Y-96550000D02*
X100151874Y-96519762D01*
X100151874Y-96519762D02*
X100091398Y-96489524D01*
X100091398Y-96489524D02*
X100030922Y-96429048D01*
X100030922Y-96429048D02*
X100000684Y-96338333D01*
X100000684Y-96338333D02*
X100000684Y-96277857D01*
X100000684Y-96277857D02*
X100030922Y-96187143D01*
X100030922Y-96187143D02*
X100061160Y-96156905D01*
X100605446Y-95915000D02*
X100635684Y-95824286D01*
X100635684Y-95824286D02*
X100635684Y-95673095D01*
X100635684Y-95673095D02*
X100605446Y-95612619D01*
X100605446Y-95612619D02*
X100575207Y-95582381D01*
X100575207Y-95582381D02*
X100514731Y-95552143D01*
X100514731Y-95552143D02*
X100454255Y-95552143D01*
X100454255Y-95552143D02*
X100393779Y-95582381D01*
X100393779Y-95582381D02*
X100363541Y-95612619D01*
X100363541Y-95612619D02*
X100333303Y-95673095D01*
X100333303Y-95673095D02*
X100303065Y-95794048D01*
X100303065Y-95794048D02*
X100272826Y-95854524D01*
X100272826Y-95854524D02*
X100242588Y-95884762D01*
X100242588Y-95884762D02*
X100182112Y-95915000D01*
X100182112Y-95915000D02*
X100121636Y-95915000D01*
X100121636Y-95915000D02*
X100061160Y-95884762D01*
X100061160Y-95884762D02*
X100030922Y-95854524D01*
X100030922Y-95854524D02*
X100000684Y-95794048D01*
X100000684Y-95794048D02*
X100000684Y-95642857D01*
X100000684Y-95642857D02*
X100030922Y-95552143D01*
X100635684Y-95280000D02*
X100000684Y-95280000D01*
X100212350Y-94221666D02*
X100635684Y-94221666D01*
X99970446Y-94372857D02*
X100424017Y-94524047D01*
X100424017Y-94524047D02*
X100424017Y-94130952D01*
X100635684Y-93102856D02*
X100635684Y-93405237D01*
X100635684Y-93405237D02*
X100000684Y-93405237D01*
X100454255Y-92921427D02*
X100454255Y-92619046D01*
X100635684Y-92981903D02*
X100000684Y-92770237D01*
X100000684Y-92770237D02*
X100635684Y-92558570D01*
X100635684Y-92346903D02*
X100000684Y-92346903D01*
X100000684Y-92346903D02*
X100635684Y-91984046D01*
X100635684Y-91984046D02*
X100000684Y-91984046D01*
X100303065Y-91681665D02*
X100303065Y-91469998D01*
X100635684Y-91379284D02*
X100635684Y-91681665D01*
X100635684Y-91681665D02*
X100000684Y-91681665D01*
X100000684Y-91681665D02*
X100000684Y-91379284D01*
X100685476Y-111574014D02*
X101048333Y-111574014D01*
X100866904Y-112209014D02*
X100866904Y-111574014D01*
X101260000Y-111967109D02*
X101743810Y-111967109D01*
X100685476Y-112570680D02*
X101048333Y-112570680D01*
X100866904Y-113205680D02*
X100866904Y-112570680D01*
X101260000Y-112963775D02*
X101743810Y-112963775D01*
X101501905Y-113205680D02*
X101501905Y-112721870D01*
X101063452Y-110215682D02*
X100851785Y-109913301D01*
X100700595Y-110215682D02*
X100700595Y-109580682D01*
X100700595Y-109580682D02*
X100942500Y-109580682D01*
X100942500Y-109580682D02*
X101002976Y-109610920D01*
X101002976Y-109610920D02*
X101033214Y-109641158D01*
X101033214Y-109641158D02*
X101063452Y-109701634D01*
X101063452Y-109701634D02*
X101063452Y-109792348D01*
X101063452Y-109792348D02*
X101033214Y-109852824D01*
X101033214Y-109852824D02*
X101002976Y-109883063D01*
X101002976Y-109883063D02*
X100942500Y-109913301D01*
X100942500Y-109913301D02*
X100700595Y-109913301D01*
X101335595Y-109973777D02*
X101819405Y-109973777D01*
X101577500Y-110215682D02*
X101577500Y-109731872D01*
X101018095Y-107980445D02*
X101501905Y-107980445D01*
X101063452Y-109219016D02*
X100851785Y-108916635D01*
X100700595Y-109219016D02*
X100700595Y-108584016D01*
X100700595Y-108584016D02*
X100942500Y-108584016D01*
X100942500Y-108584016D02*
X101002976Y-108614254D01*
X101002976Y-108614254D02*
X101033214Y-108644492D01*
X101033214Y-108644492D02*
X101063452Y-108704968D01*
X101063452Y-108704968D02*
X101063452Y-108795682D01*
X101063452Y-108795682D02*
X101033214Y-108856158D01*
X101033214Y-108856158D02*
X101002976Y-108886397D01*
X101002976Y-108886397D02*
X100942500Y-108916635D01*
X100942500Y-108916635D02*
X100700595Y-108916635D01*
X101335595Y-108977111D02*
X101819405Y-108977111D01*
X101018095Y-110970443D02*
X101501905Y-110970443D01*
X99154642Y-107043779D02*
X99638452Y-107043779D01*
X99396547Y-107285684D02*
X99396547Y-106801874D01*
X100152499Y-106953065D02*
X100243213Y-106983303D01*
X100243213Y-106983303D02*
X100273451Y-107013541D01*
X100273451Y-107013541D02*
X100303689Y-107074017D01*
X100303689Y-107074017D02*
X100303689Y-107164731D01*
X100303689Y-107164731D02*
X100273451Y-107225207D01*
X100273451Y-107225207D02*
X100243213Y-107255446D01*
X100243213Y-107255446D02*
X100182737Y-107285684D01*
X100182737Y-107285684D02*
X99940832Y-107285684D01*
X99940832Y-107285684D02*
X99940832Y-106650684D01*
X99940832Y-106650684D02*
X100152499Y-106650684D01*
X100152499Y-106650684D02*
X100212975Y-106680922D01*
X100212975Y-106680922D02*
X100243213Y-106711160D01*
X100243213Y-106711160D02*
X100273451Y-106771636D01*
X100273451Y-106771636D02*
X100273451Y-106832112D01*
X100273451Y-106832112D02*
X100243213Y-106892588D01*
X100243213Y-106892588D02*
X100212975Y-106922826D01*
X100212975Y-106922826D02*
X100152499Y-106953065D01*
X100152499Y-106953065D02*
X99940832Y-106953065D01*
X100545594Y-107104255D02*
X100847975Y-107104255D01*
X100485118Y-107285684D02*
X100696784Y-106650684D01*
X100696784Y-106650684D02*
X100908451Y-107285684D01*
X101029404Y-106650684D02*
X101392261Y-106650684D01*
X101210832Y-107285684D02*
X101210832Y-106650684D01*
X101513214Y-106650684D02*
X101876071Y-106650684D01*
X101694642Y-107285684D02*
X101694642Y-106650684D01*
X91855476Y-106600684D02*
X92218333Y-106600684D01*
X92036904Y-107235684D02*
X92036904Y-106600684D01*
X92430000Y-106993779D02*
X92913810Y-106993779D01*
X92309047Y-104789017D02*
X92097380Y-104486636D01*
X91946190Y-104789017D02*
X91946190Y-104154017D01*
X91946190Y-104154017D02*
X92188095Y-104154017D01*
X92188095Y-104154017D02*
X92248571Y-104184255D01*
X92248571Y-104184255D02*
X92278809Y-104214493D01*
X92278809Y-104214493D02*
X92309047Y-104274969D01*
X92309047Y-104274969D02*
X92309047Y-104365683D01*
X92309047Y-104365683D02*
X92278809Y-104426159D01*
X92278809Y-104426159D02*
X92248571Y-104456398D01*
X92248571Y-104456398D02*
X92188095Y-104486636D01*
X92188095Y-104486636D02*
X91946190Y-104486636D01*
X92581190Y-104547112D02*
X93065000Y-104547112D01*
X91855476Y-105377350D02*
X92218333Y-105377350D01*
X92036904Y-106012350D02*
X92036904Y-105377350D01*
X92430000Y-105770445D02*
X92913810Y-105770445D01*
X92671905Y-106012350D02*
X92671905Y-105528540D01*
X92309047Y-103565684D02*
X92097380Y-103263303D01*
X91946190Y-103565684D02*
X91946190Y-102930684D01*
X91946190Y-102930684D02*
X92188095Y-102930684D01*
X92188095Y-102930684D02*
X92248571Y-102960922D01*
X92248571Y-102960922D02*
X92278809Y-102991160D01*
X92278809Y-102991160D02*
X92309047Y-103051636D01*
X92309047Y-103051636D02*
X92309047Y-103142350D01*
X92309047Y-103142350D02*
X92278809Y-103202826D01*
X92278809Y-103202826D02*
X92248571Y-103233065D01*
X92248571Y-103233065D02*
X92188095Y-103263303D01*
X92188095Y-103263303D02*
X91946190Y-103263303D01*
X92581190Y-103323779D02*
X93065000Y-103323779D01*
X92823095Y-103565684D02*
X92823095Y-103081874D01*
X93862675Y-110299246D02*
X93953389Y-110329484D01*
X93953389Y-110329484D02*
X94104580Y-110329484D01*
X94104580Y-110329484D02*
X94165056Y-110299246D01*
X94165056Y-110299246D02*
X94195294Y-110269007D01*
X94195294Y-110269007D02*
X94225532Y-110208531D01*
X94225532Y-110208531D02*
X94225532Y-110148055D01*
X94225532Y-110148055D02*
X94195294Y-110087579D01*
X94195294Y-110087579D02*
X94165056Y-110057341D01*
X94165056Y-110057341D02*
X94104580Y-110027103D01*
X94104580Y-110027103D02*
X93983627Y-109996865D01*
X93983627Y-109996865D02*
X93923151Y-109966626D01*
X93923151Y-109966626D02*
X93892913Y-109936388D01*
X93892913Y-109936388D02*
X93862675Y-109875912D01*
X93862675Y-109875912D02*
X93862675Y-109815436D01*
X93862675Y-109815436D02*
X93892913Y-109754960D01*
X93892913Y-109754960D02*
X93923151Y-109724722D01*
X93923151Y-109724722D02*
X93983627Y-109694484D01*
X93983627Y-109694484D02*
X94134818Y-109694484D01*
X94134818Y-109694484D02*
X94225532Y-109724722D01*
X94497675Y-110329484D02*
X94497675Y-109694484D01*
X94497675Y-109694484D02*
X94739580Y-109694484D01*
X94739580Y-109694484D02*
X94800056Y-109724722D01*
X94800056Y-109724722D02*
X94830294Y-109754960D01*
X94830294Y-109754960D02*
X94860532Y-109815436D01*
X94860532Y-109815436D02*
X94860532Y-109906150D01*
X94860532Y-109906150D02*
X94830294Y-109966626D01*
X94830294Y-109966626D02*
X94800056Y-109996865D01*
X94800056Y-109996865D02*
X94739580Y-110027103D01*
X94739580Y-110027103D02*
X94497675Y-110027103D01*
X95102437Y-110148055D02*
X95404818Y-110148055D01*
X95041961Y-110329484D02*
X95253627Y-109694484D01*
X95253627Y-109694484D02*
X95465294Y-110329484D01*
X96039818Y-110329484D02*
X95828151Y-110027103D01*
X95676961Y-110329484D02*
X95676961Y-109694484D01*
X95676961Y-109694484D02*
X95918866Y-109694484D01*
X95918866Y-109694484D02*
X95979342Y-109724722D01*
X95979342Y-109724722D02*
X96009580Y-109754960D01*
X96009580Y-109754960D02*
X96039818Y-109815436D01*
X96039818Y-109815436D02*
X96039818Y-109906150D01*
X96039818Y-109906150D02*
X96009580Y-109966626D01*
X96009580Y-109966626D02*
X95979342Y-109996865D01*
X95979342Y-109996865D02*
X95918866Y-110027103D01*
X95918866Y-110027103D02*
X95676961Y-110027103D01*
X96311961Y-109996865D02*
X96523628Y-109996865D01*
X96614342Y-110329484D02*
X96311961Y-110329484D01*
X96311961Y-110329484D02*
X96311961Y-109694484D01*
X96311961Y-109694484D02*
X96614342Y-109694484D01*
X97370295Y-109996865D02*
X97581962Y-109996865D01*
X97672676Y-110329484D02*
X97370295Y-110329484D01*
X97370295Y-110329484D02*
X97370295Y-109694484D01*
X97370295Y-109694484D02*
X97672676Y-109694484D01*
X97854105Y-109694484D02*
X98216962Y-109694484D01*
X98035533Y-110329484D02*
X98035533Y-109694484D01*
X98428629Y-110329484D02*
X98428629Y-109694484D01*
X98428629Y-109996865D02*
X98791486Y-109996865D01*
X98791486Y-110329484D02*
X98791486Y-109694484D01*
X103216309Y-115060684D02*
X103216309Y-115574731D01*
X103216309Y-115574731D02*
X103246547Y-115635207D01*
X103246547Y-115635207D02*
X103276785Y-115665446D01*
X103276785Y-115665446D02*
X103337261Y-115695684D01*
X103337261Y-115695684D02*
X103458214Y-115695684D01*
X103458214Y-115695684D02*
X103518690Y-115665446D01*
X103518690Y-115665446D02*
X103548928Y-115635207D01*
X103548928Y-115635207D02*
X103579166Y-115574731D01*
X103579166Y-115574731D02*
X103579166Y-115060684D01*
X103851309Y-115665446D02*
X103942023Y-115695684D01*
X103942023Y-115695684D02*
X104093214Y-115695684D01*
X104093214Y-115695684D02*
X104153690Y-115665446D01*
X104153690Y-115665446D02*
X104183928Y-115635207D01*
X104183928Y-115635207D02*
X104214166Y-115574731D01*
X104214166Y-115574731D02*
X104214166Y-115514255D01*
X104214166Y-115514255D02*
X104183928Y-115453779D01*
X104183928Y-115453779D02*
X104153690Y-115423541D01*
X104153690Y-115423541D02*
X104093214Y-115393303D01*
X104093214Y-115393303D02*
X103972261Y-115363065D01*
X103972261Y-115363065D02*
X103911785Y-115332826D01*
X103911785Y-115332826D02*
X103881547Y-115302588D01*
X103881547Y-115302588D02*
X103851309Y-115242112D01*
X103851309Y-115242112D02*
X103851309Y-115181636D01*
X103851309Y-115181636D02*
X103881547Y-115121160D01*
X103881547Y-115121160D02*
X103911785Y-115090922D01*
X103911785Y-115090922D02*
X103972261Y-115060684D01*
X103972261Y-115060684D02*
X104123452Y-115060684D01*
X104123452Y-115060684D02*
X104214166Y-115090922D01*
X104697976Y-115363065D02*
X104788690Y-115393303D01*
X104788690Y-115393303D02*
X104818928Y-115423541D01*
X104818928Y-115423541D02*
X104849166Y-115484017D01*
X104849166Y-115484017D02*
X104849166Y-115574731D01*
X104849166Y-115574731D02*
X104818928Y-115635207D01*
X104818928Y-115635207D02*
X104788690Y-115665446D01*
X104788690Y-115665446D02*
X104728214Y-115695684D01*
X104728214Y-115695684D02*
X104486309Y-115695684D01*
X104486309Y-115695684D02*
X104486309Y-115060684D01*
X104486309Y-115060684D02*
X104697976Y-115060684D01*
X104697976Y-115060684D02*
X104758452Y-115090922D01*
X104758452Y-115090922D02*
X104788690Y-115121160D01*
X104788690Y-115121160D02*
X104818928Y-115181636D01*
X104818928Y-115181636D02*
X104818928Y-115242112D01*
X104818928Y-115242112D02*
X104788690Y-115302588D01*
X104788690Y-115302588D02*
X104758452Y-115332826D01*
X104758452Y-115332826D02*
X104697976Y-115363065D01*
X104697976Y-115363065D02*
X104486309Y-115363065D01*
X105060833Y-115060684D02*
X105453928Y-115060684D01*
X105453928Y-115060684D02*
X105242261Y-115302588D01*
X105242261Y-115302588D02*
X105332976Y-115302588D01*
X105332976Y-115302588D02*
X105393452Y-115332826D01*
X105393452Y-115332826D02*
X105423690Y-115363065D01*
X105423690Y-115363065D02*
X105453928Y-115423541D01*
X105453928Y-115423541D02*
X105453928Y-115574731D01*
X105453928Y-115574731D02*
X105423690Y-115635207D01*
X105423690Y-115635207D02*
X105393452Y-115665446D01*
X105393452Y-115665446D02*
X105332976Y-115695684D01*
X105332976Y-115695684D02*
X105151547Y-115695684D01*
X105151547Y-115695684D02*
X105091071Y-115665446D01*
X105091071Y-115665446D02*
X105060833Y-115635207D01*
X101655684Y-99744762D02*
X101020684Y-99744762D01*
X101655684Y-99442381D02*
X101020684Y-99442381D01*
X101020684Y-99442381D02*
X101655684Y-99079524D01*
X101655684Y-99079524D02*
X101020684Y-99079524D01*
X101625446Y-98807381D02*
X101655684Y-98716667D01*
X101655684Y-98716667D02*
X101655684Y-98565476D01*
X101655684Y-98565476D02*
X101625446Y-98505000D01*
X101625446Y-98505000D02*
X101595207Y-98474762D01*
X101595207Y-98474762D02*
X101534731Y-98444524D01*
X101534731Y-98444524D02*
X101474255Y-98444524D01*
X101474255Y-98444524D02*
X101413779Y-98474762D01*
X101413779Y-98474762D02*
X101383541Y-98505000D01*
X101383541Y-98505000D02*
X101353303Y-98565476D01*
X101353303Y-98565476D02*
X101323065Y-98686429D01*
X101323065Y-98686429D02*
X101292826Y-98746905D01*
X101292826Y-98746905D02*
X101262588Y-98777143D01*
X101262588Y-98777143D02*
X101202112Y-98807381D01*
X101202112Y-98807381D02*
X101141636Y-98807381D01*
X101141636Y-98807381D02*
X101081160Y-98777143D01*
X101081160Y-98777143D02*
X101050922Y-98746905D01*
X101050922Y-98746905D02*
X101020684Y-98686429D01*
X101020684Y-98686429D02*
X101020684Y-98535238D01*
X101020684Y-98535238D02*
X101050922Y-98444524D01*
X101323065Y-98172381D02*
X101323065Y-97960714D01*
X101655684Y-97870000D02*
X101655684Y-98172381D01*
X101655684Y-98172381D02*
X101020684Y-98172381D01*
X101020684Y-98172381D02*
X101020684Y-97870000D01*
X101655684Y-97235000D02*
X101353303Y-97446667D01*
X101655684Y-97597857D02*
X101020684Y-97597857D01*
X101020684Y-97597857D02*
X101020684Y-97355952D01*
X101020684Y-97355952D02*
X101050922Y-97295476D01*
X101050922Y-97295476D02*
X101081160Y-97265238D01*
X101081160Y-97265238D02*
X101141636Y-97235000D01*
X101141636Y-97235000D02*
X101232350Y-97235000D01*
X101232350Y-97235000D02*
X101292826Y-97265238D01*
X101292826Y-97265238D02*
X101323065Y-97295476D01*
X101323065Y-97295476D02*
X101353303Y-97355952D01*
X101353303Y-97355952D02*
X101353303Y-97597857D01*
X101020684Y-97053571D02*
X101020684Y-96690714D01*
X101655684Y-96872143D02*
X101020684Y-96872143D01*
X101655684Y-95995237D02*
X101020684Y-95995237D01*
X101020684Y-95995237D02*
X101020684Y-95753332D01*
X101020684Y-95753332D02*
X101050922Y-95692856D01*
X101050922Y-95692856D02*
X101081160Y-95662618D01*
X101081160Y-95662618D02*
X101141636Y-95632380D01*
X101141636Y-95632380D02*
X101232350Y-95632380D01*
X101232350Y-95632380D02*
X101292826Y-95662618D01*
X101292826Y-95662618D02*
X101323065Y-95692856D01*
X101323065Y-95692856D02*
X101353303Y-95753332D01*
X101353303Y-95753332D02*
X101353303Y-95995237D01*
X101655684Y-95360237D02*
X101020684Y-95360237D01*
X101655684Y-95057856D02*
X101020684Y-95057856D01*
X101020684Y-95057856D02*
X101655684Y-94694999D01*
X101655684Y-94694999D02*
X101020684Y-94694999D01*
X101625446Y-94422856D02*
X101655684Y-94332142D01*
X101655684Y-94332142D02*
X101655684Y-94180951D01*
X101655684Y-94180951D02*
X101625446Y-94120475D01*
X101625446Y-94120475D02*
X101595207Y-94090237D01*
X101595207Y-94090237D02*
X101534731Y-94059999D01*
X101534731Y-94059999D02*
X101474255Y-94059999D01*
X101474255Y-94059999D02*
X101413779Y-94090237D01*
X101413779Y-94090237D02*
X101383541Y-94120475D01*
X101383541Y-94120475D02*
X101353303Y-94180951D01*
X101353303Y-94180951D02*
X101323065Y-94301904D01*
X101323065Y-94301904D02*
X101292826Y-94362380D01*
X101292826Y-94362380D02*
X101262588Y-94392618D01*
X101262588Y-94392618D02*
X101202112Y-94422856D01*
X101202112Y-94422856D02*
X101141636Y-94422856D01*
X101141636Y-94422856D02*
X101081160Y-94392618D01*
X101081160Y-94392618D02*
X101050922Y-94362380D01*
X101050922Y-94362380D02*
X101020684Y-94301904D01*
X101020684Y-94301904D02*
X101020684Y-94150713D01*
X101020684Y-94150713D02*
X101050922Y-94059999D01*
X101655684Y-93304046D02*
X101020684Y-93304046D01*
X101020684Y-93304046D02*
X101020684Y-93152856D01*
X101020684Y-93152856D02*
X101050922Y-93062141D01*
X101050922Y-93062141D02*
X101111398Y-93001665D01*
X101111398Y-93001665D02*
X101171874Y-92971427D01*
X101171874Y-92971427D02*
X101292826Y-92941189D01*
X101292826Y-92941189D02*
X101383541Y-92941189D01*
X101383541Y-92941189D02*
X101504493Y-92971427D01*
X101504493Y-92971427D02*
X101564969Y-93001665D01*
X101564969Y-93001665D02*
X101625446Y-93062141D01*
X101625446Y-93062141D02*
X101655684Y-93152856D01*
X101655684Y-93152856D02*
X101655684Y-93304046D01*
X101020684Y-92548094D02*
X101020684Y-92427141D01*
X101020684Y-92427141D02*
X101050922Y-92366665D01*
X101050922Y-92366665D02*
X101111398Y-92306189D01*
X101111398Y-92306189D02*
X101232350Y-92275951D01*
X101232350Y-92275951D02*
X101444017Y-92275951D01*
X101444017Y-92275951D02*
X101564969Y-92306189D01*
X101564969Y-92306189D02*
X101625446Y-92366665D01*
X101625446Y-92366665D02*
X101655684Y-92427141D01*
X101655684Y-92427141D02*
X101655684Y-92548094D01*
X101655684Y-92548094D02*
X101625446Y-92608570D01*
X101625446Y-92608570D02*
X101564969Y-92669046D01*
X101564969Y-92669046D02*
X101444017Y-92699284D01*
X101444017Y-92699284D02*
X101232350Y-92699284D01*
X101232350Y-92699284D02*
X101111398Y-92669046D01*
X101111398Y-92669046D02*
X101050922Y-92608570D01*
X101050922Y-92608570D02*
X101020684Y-92548094D01*
X101020684Y-92064284D02*
X101655684Y-91913094D01*
X101655684Y-91913094D02*
X101202112Y-91792141D01*
X101202112Y-91792141D02*
X101655684Y-91671189D01*
X101655684Y-91671189D02*
X101020684Y-91519999D01*
X101655684Y-91278094D02*
X101020684Y-91278094D01*
X101020684Y-91278094D02*
X101655684Y-90915237D01*
X101655684Y-90915237D02*
X101020684Y-90915237D01*
X103200000Y-82893779D02*
X103683810Y-82893779D01*
X103441905Y-83135684D02*
X103441905Y-82651874D01*
X103925714Y-82500684D02*
X104318809Y-82500684D01*
X104318809Y-82500684D02*
X104107142Y-82742588D01*
X104107142Y-82742588D02*
X104197857Y-82742588D01*
X104197857Y-82742588D02*
X104258333Y-82772826D01*
X104258333Y-82772826D02*
X104288571Y-82803065D01*
X104288571Y-82803065D02*
X104318809Y-82863541D01*
X104318809Y-82863541D02*
X104318809Y-83014731D01*
X104318809Y-83014731D02*
X104288571Y-83075207D01*
X104288571Y-83075207D02*
X104258333Y-83105446D01*
X104258333Y-83105446D02*
X104197857Y-83135684D01*
X104197857Y-83135684D02*
X104016428Y-83135684D01*
X104016428Y-83135684D02*
X103955952Y-83105446D01*
X103955952Y-83105446D02*
X103925714Y-83075207D01*
X104590952Y-83075207D02*
X104621190Y-83105446D01*
X104621190Y-83105446D02*
X104590952Y-83135684D01*
X104590952Y-83135684D02*
X104560714Y-83105446D01*
X104560714Y-83105446D02*
X104590952Y-83075207D01*
X104590952Y-83075207D02*
X104590952Y-83135684D01*
X104832857Y-82500684D02*
X105225952Y-82500684D01*
X105225952Y-82500684D02*
X105014285Y-82742588D01*
X105014285Y-82742588D02*
X105105000Y-82742588D01*
X105105000Y-82742588D02*
X105165476Y-82772826D01*
X105165476Y-82772826D02*
X105195714Y-82803065D01*
X105195714Y-82803065D02*
X105225952Y-82863541D01*
X105225952Y-82863541D02*
X105225952Y-83014731D01*
X105225952Y-83014731D02*
X105195714Y-83075207D01*
X105195714Y-83075207D02*
X105165476Y-83105446D01*
X105165476Y-83105446D02*
X105105000Y-83135684D01*
X105105000Y-83135684D02*
X104923571Y-83135684D01*
X104923571Y-83135684D02*
X104863095Y-83105446D01*
X104863095Y-83105446D02*
X104832857Y-83075207D01*
X105407381Y-82500684D02*
X105619047Y-83135684D01*
X105619047Y-83135684D02*
X105830714Y-82500684D01*
D11*
X95452000Y-98032856D02*
X94690000Y-98032856D01*
X94690000Y-98032856D02*
X95234286Y-97778856D01*
X95234286Y-97778856D02*
X94690000Y-97524856D01*
X94690000Y-97524856D02*
X95452000Y-97524856D01*
X95452000Y-97161999D02*
X94690000Y-97161999D01*
X95452000Y-96799142D02*
X94690000Y-96799142D01*
X94690000Y-96799142D02*
X94690000Y-96508856D01*
X94690000Y-96508856D02*
X94726286Y-96436285D01*
X94726286Y-96436285D02*
X94762572Y-96399999D01*
X94762572Y-96399999D02*
X94835143Y-96363713D01*
X94835143Y-96363713D02*
X94944000Y-96363713D01*
X94944000Y-96363713D02*
X95016572Y-96399999D01*
X95016572Y-96399999D02*
X95052857Y-96436285D01*
X95052857Y-96436285D02*
X95089143Y-96508856D01*
X95089143Y-96508856D02*
X95089143Y-96799142D01*
X95452000Y-96037142D02*
X94690000Y-96037142D01*
X94653715Y-95129999D02*
X95633429Y-95783142D01*
X94690000Y-94875999D02*
X95306857Y-94875999D01*
X95306857Y-94875999D02*
X95379429Y-94839713D01*
X95379429Y-94839713D02*
X95415715Y-94803428D01*
X95415715Y-94803428D02*
X95452000Y-94730856D01*
X95452000Y-94730856D02*
X95452000Y-94585713D01*
X95452000Y-94585713D02*
X95415715Y-94513142D01*
X95415715Y-94513142D02*
X95379429Y-94476856D01*
X95379429Y-94476856D02*
X95306857Y-94440570D01*
X95306857Y-94440570D02*
X94690000Y-94440570D01*
X95415715Y-94113999D02*
X95452000Y-94005142D01*
X95452000Y-94005142D02*
X95452000Y-93823713D01*
X95452000Y-93823713D02*
X95415715Y-93751142D01*
X95415715Y-93751142D02*
X95379429Y-93714856D01*
X95379429Y-93714856D02*
X95306857Y-93678570D01*
X95306857Y-93678570D02*
X95234286Y-93678570D01*
X95234286Y-93678570D02*
X95161715Y-93714856D01*
X95161715Y-93714856D02*
X95125429Y-93751142D01*
X95125429Y-93751142D02*
X95089143Y-93823713D01*
X95089143Y-93823713D02*
X95052857Y-93968856D01*
X95052857Y-93968856D02*
X95016572Y-94041427D01*
X95016572Y-94041427D02*
X94980286Y-94077713D01*
X94980286Y-94077713D02*
X94907715Y-94113999D01*
X94907715Y-94113999D02*
X94835143Y-94113999D01*
X94835143Y-94113999D02*
X94762572Y-94077713D01*
X94762572Y-94077713D02*
X94726286Y-94041427D01*
X94726286Y-94041427D02*
X94690000Y-93968856D01*
X94690000Y-93968856D02*
X94690000Y-93787427D01*
X94690000Y-93787427D02*
X94726286Y-93678570D01*
X95052857Y-93097999D02*
X95089143Y-92989142D01*
X95089143Y-92989142D02*
X95125429Y-92952856D01*
X95125429Y-92952856D02*
X95198000Y-92916570D01*
X95198000Y-92916570D02*
X95306857Y-92916570D01*
X95306857Y-92916570D02*
X95379429Y-92952856D01*
X95379429Y-92952856D02*
X95415715Y-92989142D01*
X95415715Y-92989142D02*
X95452000Y-93061713D01*
X95452000Y-93061713D02*
X95452000Y-93351999D01*
X95452000Y-93351999D02*
X94690000Y-93351999D01*
X94690000Y-93351999D02*
X94690000Y-93097999D01*
X94690000Y-93097999D02*
X94726286Y-93025428D01*
X94726286Y-93025428D02*
X94762572Y-92989142D01*
X94762572Y-92989142D02*
X94835143Y-92952856D01*
X94835143Y-92952856D02*
X94907715Y-92952856D01*
X94907715Y-92952856D02*
X94980286Y-92989142D01*
X94980286Y-92989142D02*
X95016572Y-93025428D01*
X95016572Y-93025428D02*
X95052857Y-93097999D01*
X95052857Y-93097999D02*
X95052857Y-93351999D01*
X94690000Y-92662570D02*
X94690000Y-92190856D01*
X94690000Y-92190856D02*
X94980286Y-92444856D01*
X94980286Y-92444856D02*
X94980286Y-92335999D01*
X94980286Y-92335999D02*
X95016572Y-92263428D01*
X95016572Y-92263428D02*
X95052857Y-92227142D01*
X95052857Y-92227142D02*
X95125429Y-92190856D01*
X95125429Y-92190856D02*
X95306857Y-92190856D01*
X95306857Y-92190856D02*
X95379429Y-92227142D01*
X95379429Y-92227142D02*
X95415715Y-92263428D01*
X95415715Y-92263428D02*
X95452000Y-92335999D01*
X95452000Y-92335999D02*
X95452000Y-92553713D01*
X95452000Y-92553713D02*
X95415715Y-92626285D01*
X95415715Y-92626285D02*
X95379429Y-92662570D01*
X96606249Y-99429856D02*
X96642535Y-99466142D01*
X96642535Y-99466142D02*
X96678820Y-99574999D01*
X96678820Y-99574999D02*
X96678820Y-99647571D01*
X96678820Y-99647571D02*
X96642535Y-99756428D01*
X96642535Y-99756428D02*
X96569963Y-99828999D01*
X96569963Y-99828999D02*
X96497392Y-99865285D01*
X96497392Y-99865285D02*
X96352249Y-99901571D01*
X96352249Y-99901571D02*
X96243392Y-99901571D01*
X96243392Y-99901571D02*
X96098249Y-99865285D01*
X96098249Y-99865285D02*
X96025677Y-99828999D01*
X96025677Y-99828999D02*
X95953106Y-99756428D01*
X95953106Y-99756428D02*
X95916820Y-99647571D01*
X95916820Y-99647571D02*
X95916820Y-99574999D01*
X95916820Y-99574999D02*
X95953106Y-99466142D01*
X95953106Y-99466142D02*
X95989392Y-99429856D01*
X96461106Y-99139571D02*
X96461106Y-98776714D01*
X96678820Y-99212142D02*
X95916820Y-98958142D01*
X95916820Y-98958142D02*
X96678820Y-98704142D01*
X96678820Y-98450142D02*
X95916820Y-98450142D01*
X95916820Y-98450142D02*
X96461106Y-98196142D01*
X96461106Y-98196142D02*
X95916820Y-97942142D01*
X95916820Y-97942142D02*
X96678820Y-97942142D01*
X96279677Y-97579285D02*
X96279677Y-97325285D01*
X96678820Y-97216428D02*
X96678820Y-97579285D01*
X96678820Y-97579285D02*
X95916820Y-97579285D01*
X95916820Y-97579285D02*
X95916820Y-97216428D01*
X96678820Y-96454427D02*
X96315963Y-96708427D01*
X96678820Y-96889856D02*
X95916820Y-96889856D01*
X95916820Y-96889856D02*
X95916820Y-96599570D01*
X95916820Y-96599570D02*
X95953106Y-96526999D01*
X95953106Y-96526999D02*
X95989392Y-96490713D01*
X95989392Y-96490713D02*
X96061963Y-96454427D01*
X96061963Y-96454427D02*
X96170820Y-96454427D01*
X96170820Y-96454427D02*
X96243392Y-96490713D01*
X96243392Y-96490713D02*
X96279677Y-96526999D01*
X96279677Y-96526999D02*
X96315963Y-96599570D01*
X96315963Y-96599570D02*
X96315963Y-96889856D01*
X96461106Y-96164142D02*
X96461106Y-95801285D01*
X96678820Y-96236713D02*
X95916820Y-95982713D01*
X95916820Y-95982713D02*
X96678820Y-95728713D01*
X96461106Y-94930428D02*
X96461106Y-94567571D01*
X96678820Y-95002999D02*
X95916820Y-94748999D01*
X95916820Y-94748999D02*
X96678820Y-94494999D01*
X96678820Y-94240999D02*
X95916820Y-94240999D01*
X95916820Y-94240999D02*
X95916820Y-94059570D01*
X95916820Y-94059570D02*
X95953106Y-93950713D01*
X95953106Y-93950713D02*
X96025677Y-93878142D01*
X96025677Y-93878142D02*
X96098249Y-93841856D01*
X96098249Y-93841856D02*
X96243392Y-93805570D01*
X96243392Y-93805570D02*
X96352249Y-93805570D01*
X96352249Y-93805570D02*
X96497392Y-93841856D01*
X96497392Y-93841856D02*
X96569963Y-93878142D01*
X96569963Y-93878142D02*
X96642535Y-93950713D01*
X96642535Y-93950713D02*
X96678820Y-94059570D01*
X96678820Y-94059570D02*
X96678820Y-94240999D01*
X96461106Y-93515285D02*
X96461106Y-93152428D01*
X96678820Y-93587856D02*
X95916820Y-93333856D01*
X95916820Y-93333856D02*
X96678820Y-93079856D01*
X96678820Y-92825856D02*
X95916820Y-92825856D01*
X95916820Y-92825856D02*
X95916820Y-92535570D01*
X95916820Y-92535570D02*
X95953106Y-92462999D01*
X95953106Y-92462999D02*
X95989392Y-92426713D01*
X95989392Y-92426713D02*
X96061963Y-92390427D01*
X96061963Y-92390427D02*
X96170820Y-92390427D01*
X96170820Y-92390427D02*
X96243392Y-92426713D01*
X96243392Y-92426713D02*
X96279677Y-92462999D01*
X96279677Y-92462999D02*
X96315963Y-92535570D01*
X96315963Y-92535570D02*
X96315963Y-92825856D01*
X95916820Y-92172713D02*
X95916820Y-91737285D01*
X96678820Y-91954999D02*
X95916820Y-91954999D01*
X96279677Y-91483285D02*
X96279677Y-91229285D01*
X96678820Y-91120428D02*
X96678820Y-91483285D01*
X96678820Y-91483285D02*
X95916820Y-91483285D01*
X95916820Y-91483285D02*
X95916820Y-91120428D01*
X96678820Y-90358427D02*
X96315963Y-90612427D01*
X96678820Y-90793856D02*
X95916820Y-90793856D01*
X95916820Y-90793856D02*
X95916820Y-90503570D01*
X95916820Y-90503570D02*
X95953106Y-90430999D01*
X95953106Y-90430999D02*
X95989392Y-90394713D01*
X95989392Y-90394713D02*
X96061963Y-90358427D01*
X96061963Y-90358427D02*
X96170820Y-90358427D01*
X96170820Y-90358427D02*
X96243392Y-90394713D01*
X96243392Y-90394713D02*
X96279677Y-90430999D01*
X96279677Y-90430999D02*
X96315963Y-90503570D01*
X96315963Y-90503570D02*
X96315963Y-90793856D01*
D10*
X93212159Y-101941666D02*
X93665730Y-101941666D01*
X93665730Y-101941666D02*
X93756444Y-101971905D01*
X93756444Y-101971905D02*
X93816921Y-102032381D01*
X93816921Y-102032381D02*
X93847159Y-102123095D01*
X93847159Y-102123095D02*
X93847159Y-102183571D01*
X93423825Y-101367142D02*
X93847159Y-101367142D01*
X93181921Y-101518333D02*
X93635492Y-101669523D01*
X93635492Y-101669523D02*
X93635492Y-101276428D01*
X106868159Y-85815833D02*
X106565778Y-86027500D01*
X106868159Y-86178690D02*
X106233159Y-86178690D01*
X106233159Y-86178690D02*
X106233159Y-85936785D01*
X106233159Y-85936785D02*
X106263397Y-85876309D01*
X106263397Y-85876309D02*
X106293635Y-85846071D01*
X106293635Y-85846071D02*
X106354111Y-85815833D01*
X106354111Y-85815833D02*
X106444825Y-85815833D01*
X106444825Y-85815833D02*
X106505301Y-85846071D01*
X106505301Y-85846071D02*
X106535540Y-85876309D01*
X106535540Y-85876309D02*
X106565778Y-85936785D01*
X106565778Y-85936785D02*
X106565778Y-86178690D01*
X106868159Y-85211071D02*
X106868159Y-85573928D01*
X106868159Y-85392500D02*
X106233159Y-85392500D01*
X106233159Y-85392500D02*
X106323873Y-85452976D01*
X106323873Y-85452976D02*
X106384349Y-85513452D01*
X106384349Y-85513452D02*
X106414587Y-85573928D01*
X102145058Y-102689065D02*
X102598629Y-102689065D01*
X102598629Y-102689065D02*
X102689343Y-102719304D01*
X102689343Y-102719304D02*
X102749820Y-102779780D01*
X102749820Y-102779780D02*
X102780058Y-102870494D01*
X102780058Y-102870494D02*
X102780058Y-102930970D01*
X102780058Y-102054065D02*
X102780058Y-102416922D01*
X102780058Y-102235494D02*
X102145058Y-102235494D01*
X102145058Y-102235494D02*
X102235772Y-102295970D01*
X102235772Y-102295970D02*
X102296248Y-102356446D01*
X102296248Y-102356446D02*
X102326486Y-102416922D01*
X101696682Y-88369233D02*
X101726921Y-88399471D01*
X101726921Y-88399471D02*
X101757159Y-88490185D01*
X101757159Y-88490185D02*
X101757159Y-88550661D01*
X101757159Y-88550661D02*
X101726921Y-88641376D01*
X101726921Y-88641376D02*
X101666444Y-88701852D01*
X101666444Y-88701852D02*
X101605968Y-88732090D01*
X101605968Y-88732090D02*
X101485016Y-88762328D01*
X101485016Y-88762328D02*
X101394301Y-88762328D01*
X101394301Y-88762328D02*
X101273349Y-88732090D01*
X101273349Y-88732090D02*
X101212873Y-88701852D01*
X101212873Y-88701852D02*
X101152397Y-88641376D01*
X101152397Y-88641376D02*
X101122159Y-88550661D01*
X101122159Y-88550661D02*
X101122159Y-88490185D01*
X101122159Y-88490185D02*
X101152397Y-88399471D01*
X101152397Y-88399471D02*
X101182635Y-88369233D01*
X101757159Y-87764471D02*
X101757159Y-88127328D01*
X101757159Y-87945900D02*
X101122159Y-87945900D01*
X101122159Y-87945900D02*
X101212873Y-88006376D01*
X101212873Y-88006376D02*
X101273349Y-88066852D01*
X101273349Y-88066852D02*
X101303587Y-88127328D01*
X106868159Y-84697690D02*
X106233159Y-84697690D01*
X106233159Y-84697690D02*
X106233159Y-84546500D01*
X106233159Y-84546500D02*
X106263397Y-84455785D01*
X106263397Y-84455785D02*
X106323873Y-84395309D01*
X106323873Y-84395309D02*
X106384349Y-84365071D01*
X106384349Y-84365071D02*
X106505301Y-84334833D01*
X106505301Y-84334833D02*
X106596016Y-84334833D01*
X106596016Y-84334833D02*
X106716968Y-84365071D01*
X106716968Y-84365071D02*
X106777444Y-84395309D01*
X106777444Y-84395309D02*
X106837921Y-84455785D01*
X106837921Y-84455785D02*
X106868159Y-84546500D01*
X106868159Y-84546500D02*
X106868159Y-84697690D01*
X106868159Y-83730071D02*
X106868159Y-84092928D01*
X106868159Y-83911500D02*
X106233159Y-83911500D01*
X106233159Y-83911500D02*
X106323873Y-83971976D01*
X106323873Y-83971976D02*
X106384349Y-84032452D01*
X106384349Y-84032452D02*
X106414587Y-84092928D01*
X102112159Y-114381666D02*
X102565730Y-114381666D01*
X102565730Y-114381666D02*
X102656444Y-114411905D01*
X102656444Y-114411905D02*
X102716921Y-114472381D01*
X102716921Y-114472381D02*
X102747159Y-114563095D01*
X102747159Y-114563095D02*
X102747159Y-114623571D01*
X102112159Y-114139761D02*
X102112159Y-113746666D01*
X102112159Y-113746666D02*
X102354063Y-113958333D01*
X102354063Y-113958333D02*
X102354063Y-113867618D01*
X102354063Y-113867618D02*
X102384301Y-113807142D01*
X102384301Y-113807142D02*
X102414540Y-113776904D01*
X102414540Y-113776904D02*
X102475016Y-113746666D01*
X102475016Y-113746666D02*
X102626206Y-113746666D01*
X102626206Y-113746666D02*
X102686682Y-113776904D01*
X102686682Y-113776904D02*
X102716921Y-113807142D01*
X102716921Y-113807142D02*
X102747159Y-113867618D01*
X102747159Y-113867618D02*
X102747159Y-114049047D01*
X102747159Y-114049047D02*
X102716921Y-114109523D01*
X102716921Y-114109523D02*
X102686682Y-114139761D01*
D12*
%TO.C,J4*%
X94140000Y-100920000D02*
X94140000Y-102720000D01*
X95740000Y-100920000D02*
X94140000Y-100920000D01*
X95740000Y-109390000D02*
X94140000Y-109390000D01*
X94140000Y-109390000D02*
X94140000Y-107590000D01*
X98610000Y-102190000D02*
X98610000Y-108120000D01*
X94140000Y-102720000D02*
X93200000Y-102720000D01*
D11*
%TO.C,J1*%
X106504745Y-103681999D02*
X107726999Y-103681999D01*
X107726999Y-103681999D02*
X107726999Y-86997999D01*
X107726999Y-86997999D02*
X106504745Y-86997999D01*
D13*
X101853000Y-100561399D02*
G75*
G03*
X101453000Y-100561399I-200000J0D01*
G01*
X101453000Y-100561399D02*
G75*
G03*
X101853000Y-100561399I200000J0D01*
G01*
D12*
%TO.C,D1*%
X103191000Y-83494000D02*
X103191000Y-84964000D01*
X103191000Y-84964000D02*
X105476000Y-84964000D01*
X105476000Y-83494000D02*
X103191000Y-83494000D01*
%TO.C,J3*%
X105535000Y-105360000D02*
X103035000Y-105360000D01*
X103035000Y-105360000D02*
X103035000Y-106410000D01*
X107505000Y-113410000D02*
X107505000Y-106530000D01*
X103035000Y-113530000D02*
X102045000Y-113530000D01*
X105535000Y-114580000D02*
X103035000Y-114580000D01*
X103035000Y-114580000D02*
X103035000Y-113530000D01*
%TO.C,TP1*%
X101334800Y-86741000D02*
G75*
G03*
X99934800Y-86741000I-700000J0D01*
G01*
X99934800Y-86741000D02*
G75*
G03*
X101334800Y-86741000I700000J0D01*
G01*
%TO.C,TP2*%
X106694200Y-116713000D02*
G75*
G03*
X105294200Y-116713000I-700000J0D01*
G01*
X105294200Y-116713000D02*
G75*
G03*
X106694200Y-116713000I700000J0D01*
G01*
%TD*%
M02*
