M48
; DRILL file {KiCad 7.0.10} date Thu Feb  1 11:05:04 2024
; FORMAT={-:-/ absolute / inch / decimal}
; #@! TF.CreationDate,2024-02-01T11:05:04-05:00
; #@! TF.GenerationSoftware,Kicad,Pcbnew,7.0.10
; #@! TF.FileFunction,Plated,1,6,PTH
FMAT,2
INCH
; #@! TA.AperFunction,Plated,PTH,ViaDrill
T1C0.0079
; #@! TA.AperFunction,Plated,PTH,ComponentDrill
T2C0.0866
%
G90
G05
T1
X3.6508Y-4.1856
X3.6508Y-4.2081
X3.653Y-4.0795
X3.653Y-4.102
X3.681Y-3.588
X3.6885Y-3.6643
X3.6885Y-3.69
X3.6887Y-3.8218
X3.6887Y-3.8475
X3.691Y-4.008
X3.6918Y-3.7116
X3.6918Y-3.7372
X3.6929Y-3.8848
X3.6929Y-3.9105
X3.6934Y-3.7746
X3.6934Y-3.8002
X3.76Y-3.81
X3.765Y-3.7
X3.767Y-3.757
X3.767Y-4.118
X3.768Y-3.869
X3.778Y-3.655
X3.778Y-4.201
X3.79Y-3.87
X3.792Y-4.036
X3.793Y-4.118
X3.795Y-3.756
X3.8665Y-3.8268
X3.8701Y-3.8894
X3.875Y-4.196
X3.8965Y-3.8243
X3.905Y-3.923
X3.9051Y-3.8841
X3.945Y-3.663
X3.9697Y-3.5169
X3.986Y-3.829
X4.006Y-3.568
X4.0105Y-3.8254
X4.014Y-3.605
X4.014Y-3.688
X4.017Y-3.724
X4.018Y-3.774
X4.022Y-3.901
X4.048Y-4.178
X4.098Y-3.963
X4.0992Y-4.3705
X4.101Y-3.585
X4.1012Y-4.25
X4.104Y-3.7432
X4.104Y-3.7688
X4.105Y-3.8588
X4.105Y-3.8845
X4.106Y-3.6842
X4.106Y-3.7098
X4.109Y-3.9179
X4.109Y-3.9435
X4.114Y-3.828
X4.1634Y-3.3717
X4.2067Y-3.4811
X4.2098Y-4.0256
T2
X3.7795Y-3.4252
X3.7795Y-4.4488
M30
