%TF.GenerationSoftware,KiCad,Pcbnew,7.0.10*%
%TF.CreationDate,2024-02-01T11:04:59-05:00*%
%TF.ProjectId,quad_payload_adapter,71756164-5f70-4617-996c-6f61645f6164,rev?*%
%TF.SameCoordinates,Original*%
%TF.FileFunction,Copper,L3,Inr*%
%TF.FilePolarity,Positive*%
%FSLAX46Y46*%
G04 Gerber Fmt 4.6, Leading zero omitted, Abs format (unit mm)*
G04 Created by KiCad (PCBNEW 7.0.10) date 2024-02-01 11:04:59*
%MOMM*%
%LPD*%
G01*
G04 APERTURE LIST*
%TA.AperFunction,ComponentPad*%
%ADD10C,4.400000*%
%TD*%
%TA.AperFunction,ViaPad*%
%ADD11C,0.400000*%
%TD*%
%TA.AperFunction,Conductor*%
%ADD12C,0.111760*%
%TD*%
G04 APERTURE END LIST*
D10*
%TO.N,GND*%
%TO.C,H1*%
X96000000Y-87000000D03*
%TD*%
%TO.N,GND*%
%TO.C,H2*%
X96000000Y-113000000D03*
%TD*%
D11*
%TO.N,CAM1_C_P*%
X101244400Y-97256600D03*
%TO.N,GND*%
X95504000Y-96774000D03*
X96316800Y-102514400D03*
X96266000Y-98298000D03*
X95707200Y-98272600D03*
X104089200Y-100660200D03*
X102158800Y-99085400D03*
X104495600Y-97231200D03*
X102057200Y-95859600D03*
X101955600Y-93675200D03*
X101955600Y-91567000D03*
%TO.N,CAM_GPIO*%
X100203000Y-93040200D03*
%TO.N,+3.3V*%
X98425000Y-106578400D03*
%TO.N,+VIN_PROT_PAYLOAD*%
X102819200Y-106121200D03*
%TO.N,GND*%
X96393000Y-95402400D03*
X95681800Y-95427802D03*
X95631000Y-93980000D03*
X95961200Y-92837000D03*
X95961200Y-106705400D03*
X96342200Y-104597200D03*
X95681800Y-104597200D03*
X93751400Y-101803200D03*
%TO.N,CAM_GPIO*%
X93497400Y-91135200D03*
%TO.N,SCL0*%
X104165400Y-91059000D03*
%TO.N,SDA0*%
X101752400Y-90627200D03*
%TO.N,GND*%
X102031800Y-94589600D03*
%TO.N,CAM1_D2_N*%
X104241600Y-95728130D03*
%TO.N,CAM1_D2_P*%
X104241600Y-95076670D03*
%TO.N,CAM1_D3_N*%
X104292400Y-94229530D03*
%TO.N,CAM1_D3_P*%
X104292400Y-93578070D03*
%TO.N,CAM1_D3_N*%
X93687668Y-93074270D03*
%TO.N,CAM1_D3_P*%
X93687668Y-93725730D03*
%TO.N,CAM1_D0_P*%
X93799153Y-99325730D03*
%TO.N,CAM1_D0_N*%
X93799153Y-98674270D03*
%TO.N,CAM1_D1_P*%
X93692365Y-97725730D03*
%TO.N,CAM1_D1_N*%
X93692365Y-97074270D03*
%TO.N,CAM1_C_N*%
X93811211Y-95874270D03*
%TO.N,CAM1_C_P*%
X93811211Y-96525730D03*
%TO.N,CAM1_D2_N*%
X93770992Y-94274270D03*
%TO.N,CAM1_D2_P*%
X93770992Y-94925730D03*
%TO.N,CAM1_C_N*%
X101867665Y-97165729D03*
%TO.N,CAM1_D1_N*%
X104267000Y-98665730D03*
%TO.N,CAM1_D1_P*%
X104267000Y-98014270D03*
%TO.N,CAM1_D0_N*%
X104368600Y-100165729D03*
%TO.N,CAM1_D0_P*%
X104368600Y-99514269D03*
%TO.N,GND*%
X100830000Y-89330000D03*
X105750000Y-85640000D03*
X106850000Y-88420000D03*
X106930000Y-102250000D03*
X104120000Y-111010000D03*
X104170000Y-107950000D03*
X99187000Y-99644200D03*
%TO.N,USB2_SSTX+*%
X98300000Y-98790000D03*
%TO.N,USB2_SSTX-*%
X99190000Y-98656500D03*
%TO.N,USB2_SSRX+*%
X98210000Y-97200000D03*
%TO.N,USB2_SSRX-*%
X98970000Y-97136500D03*
%TO.N,ETH_PAYLOAD_TX_POSTMAG_N*%
X92730000Y-106886360D03*
%TO.N,ETH_PAYLOAD_TX_POSTMAG_P*%
X92730000Y-106313640D03*
%TO.N,ETH_PAYLOAD_RX_POSTMAG_N*%
X92786465Y-104191360D03*
%TO.N,ETH_PAYLOAD_RX_POSTMAG_P*%
X92786465Y-103618640D03*
%TD*%
D12*
%TO.N,CAM1_D0_N*%
X104512720Y-100021609D02*
X104368600Y-100165729D01*
X105482390Y-100889774D02*
X105482390Y-100481426D01*
X104979174Y-101392990D02*
X105482390Y-100889774D01*
X101580800Y-101392990D02*
X104979174Y-101392990D01*
X101280800Y-100833663D02*
X101280800Y-101092990D01*
X100680800Y-101092990D02*
X100680800Y-100833663D01*
X105022573Y-100021609D02*
X104512720Y-100021609D01*
X93943273Y-98818390D02*
X95290626Y-98818390D01*
X101280810Y-101092990D02*
G75*
G03*
X101580800Y-101392990I299990J-10D01*
G01*
X101280837Y-100833663D02*
G75*
G03*
X100980800Y-100533663I-300037J-37D01*
G01*
X95290626Y-98818390D02*
X97865226Y-101392990D01*
X100980800Y-100533700D02*
G75*
G03*
X100680800Y-100833663I0J-300000D01*
G01*
X105482390Y-100481426D02*
X105022573Y-100021609D01*
X97865226Y-101392990D02*
X100380800Y-101392990D01*
X100380800Y-101393000D02*
G75*
G03*
X100680800Y-101092990I0J300000D01*
G01*
X93799153Y-98674270D02*
X93943273Y-98818390D01*
%TO.N,CAM1_D1_P*%
X104411120Y-98158390D02*
X104267000Y-98014270D01*
X105761790Y-97740174D02*
X105343574Y-98158390D01*
X105761790Y-97458826D02*
X105761790Y-97740174D01*
X105131574Y-96828610D02*
X105761790Y-97458826D01*
X102843646Y-97463589D02*
X103478626Y-96828610D01*
X102843645Y-97463588D02*
X102843646Y-97463589D01*
X103026998Y-98071205D02*
X102843645Y-97887852D01*
X103026998Y-98071204D02*
X103026998Y-98071205D01*
X102419382Y-98312118D02*
X102602734Y-98495470D01*
X101751426Y-98555810D02*
X101995118Y-98312118D01*
X100432574Y-98555810D02*
X101751426Y-98555810D01*
X100026174Y-98149410D02*
X100432574Y-98555810D01*
X96698774Y-98149410D02*
X100026174Y-98149410D01*
X93836485Y-97581610D02*
X96130974Y-97581610D01*
X93692365Y-97725730D02*
X93836485Y-97581610D01*
X105343574Y-98158390D02*
X104411120Y-98158390D01*
X96130974Y-97581610D02*
X96698774Y-98149410D01*
X102602735Y-98495469D02*
G75*
G03*
X103026997Y-98495469I212131J212131D01*
G01*
X103026961Y-98495433D02*
G75*
G03*
X103026998Y-98071204I-212061J212133D01*
G01*
X102843625Y-97463568D02*
G75*
G03*
X102843645Y-97887852I212175J-212132D01*
G01*
X103478626Y-96828610D02*
X105131574Y-96828610D01*
X102419381Y-98312119D02*
G75*
G03*
X101995119Y-98312119I-212131J-212131D01*
G01*
%TO.N,CAM1_D3_P*%
X104436520Y-93722190D02*
X104292400Y-93578070D01*
X105360174Y-93722190D02*
X104436520Y-93722190D01*
X105837990Y-93244374D02*
X105360174Y-93722190D01*
X105837990Y-92709026D02*
X105837990Y-93244374D01*
X105614174Y-92485210D02*
X105837990Y-92709026D01*
X102096520Y-92485210D02*
X105614174Y-92485210D01*
X101889840Y-93084154D02*
X101889840Y-92691890D01*
X101476480Y-92691890D02*
X101476480Y-93084154D01*
X93831788Y-93581610D02*
X96641826Y-93581610D01*
X102096520Y-92485240D02*
G75*
G03*
X101889840Y-92691890I-20J-206660D01*
G01*
X96641826Y-93581610D02*
X97738226Y-92485210D01*
X101476566Y-93084154D02*
G75*
G03*
X101683160Y-93290834I206634J-46D01*
G01*
X93687668Y-93725730D02*
X93831788Y-93581610D01*
X101683160Y-93290840D02*
G75*
G03*
X101889840Y-93084154I40J206640D01*
G01*
X97738226Y-92485210D02*
X101269800Y-92485210D01*
X101476490Y-92691890D02*
G75*
G03*
X101269800Y-92485210I-206690J-10D01*
G01*
%TO.N,CAM1_C_P*%
X101070410Y-97082610D02*
X101244400Y-97256600D01*
X100203974Y-97082610D02*
X101070410Y-97082610D01*
%TO.N,CAM1_C_N*%
X101421326Y-96719390D02*
X101867665Y-97165729D01*
X100354426Y-96719390D02*
X101421326Y-96719390D01*
X99653426Y-96018390D02*
X100354426Y-96719390D01*
X93955331Y-96018390D02*
X99653426Y-96018390D01*
X93811211Y-95874270D02*
X93955331Y-96018390D01*
%TO.N,CAM1_D3_N*%
X104436520Y-94085410D02*
X104292400Y-94229530D01*
X106201210Y-93394826D02*
X105510626Y-94085410D01*
X106201210Y-92558574D02*
X106201210Y-93394826D01*
X105764626Y-92121990D02*
X106201210Y-92558574D01*
X97587774Y-92121990D02*
X105764626Y-92121990D01*
X96491374Y-93218390D02*
X97587774Y-92121990D01*
X93831788Y-93218390D02*
X96491374Y-93218390D01*
X93687668Y-93074270D02*
X93831788Y-93218390D01*
X105510626Y-94085410D02*
X104436520Y-94085410D01*
%TO.N,CAM1_D0_P*%
X104512720Y-99658389D02*
X104368600Y-99514269D01*
X105173025Y-99658389D02*
X104512720Y-99658389D01*
X105845610Y-100330974D02*
X105173025Y-99658389D01*
X105845610Y-101040226D02*
X105845610Y-100330974D01*
X93943273Y-99181610D02*
X95140174Y-99181610D01*
X95140174Y-99181610D02*
X97714774Y-101756210D01*
X97714774Y-101756210D02*
X105129626Y-101756210D01*
X105129626Y-101756210D02*
X105845610Y-101040226D01*
X93799153Y-99325730D02*
X93943273Y-99181610D01*
%TO.N,CAM1_D1_N*%
X105494026Y-98521610D02*
X104411120Y-98521610D01*
X106125010Y-97890626D02*
X105494026Y-98521610D01*
X105282026Y-96465390D02*
X106125010Y-97308374D01*
X103328174Y-96465390D02*
X105282026Y-96465390D01*
X101600974Y-98192590D02*
X103328174Y-96465390D01*
X100583026Y-98192590D02*
X101600974Y-98192590D01*
X100176626Y-97786190D02*
X100583026Y-98192590D01*
X96849226Y-97786190D02*
X100176626Y-97786190D01*
X96281426Y-97218390D02*
X96849226Y-97786190D01*
X93836485Y-97218390D02*
X96281426Y-97218390D01*
X93692365Y-97074270D02*
X93836485Y-97218390D01*
X106125010Y-97308374D02*
X106125010Y-97890626D01*
X104411120Y-98521610D02*
X104267000Y-98665730D01*
%TO.N,CAM1_C_P*%
X99502974Y-96381610D02*
X100203974Y-97082610D01*
X93955331Y-96381610D02*
X99502974Y-96381610D01*
X93811211Y-96525730D02*
X93955331Y-96381610D01*
%TD*%
M02*
