%TF.GenerationSoftware,KiCad,Pcbnew,7.0.10*%
%TF.CreationDate,2024-02-01T11:04:59-05:00*%
%TF.ProjectId,quad_payload_adapter,71756164-5f70-4617-996c-6f61645f6164,rev?*%
%TF.SameCoordinates,Original*%
%TF.FileFunction,Copper,L4,Inr*%
%TF.FilePolarity,Positive*%
%FSLAX46Y46*%
G04 Gerber Fmt 4.6, Leading zero omitted, Abs format (unit mm)*
G04 Created by KiCad (PCBNEW 7.0.10) date 2024-02-01 11:04:59*
%MOMM*%
%LPD*%
G01*
G04 APERTURE LIST*
%TA.AperFunction,ComponentPad*%
%ADD10C,4.400000*%
%TD*%
%TA.AperFunction,ViaPad*%
%ADD11C,0.400000*%
%TD*%
%TA.AperFunction,Conductor*%
%ADD12C,0.111760*%
%TD*%
%TA.AperFunction,Conductor*%
%ADD13C,0.127000*%
%TD*%
G04 APERTURE END LIST*
D10*
%TO.N,GND*%
%TO.C,H1*%
X96000000Y-87000000D03*
%TD*%
%TO.N,GND*%
%TO.C,H2*%
X96000000Y-113000000D03*
%TD*%
D11*
%TO.N,CAM1_C_P*%
X101244400Y-97256600D03*
%TO.N,GND*%
X95504000Y-96774000D03*
X96316800Y-102514400D03*
X96266000Y-98298000D03*
X95707200Y-98272600D03*
X104089200Y-100660200D03*
X102158800Y-99085400D03*
X104495600Y-97231200D03*
X102057200Y-95859600D03*
X101955600Y-93675200D03*
X101955600Y-91567000D03*
%TO.N,CAM_GPIO*%
X100203000Y-93040200D03*
%TO.N,+3.3V*%
X98425000Y-106578400D03*
%TO.N,+VIN_PROT_PAYLOAD*%
X102819200Y-106121200D03*
%TO.N,GND*%
X96393000Y-95402400D03*
X95681800Y-95427802D03*
X95631000Y-93980000D03*
X95961200Y-92837000D03*
X95961200Y-106705400D03*
X96342200Y-104597200D03*
X95681800Y-104597200D03*
X93751400Y-101803200D03*
%TO.N,CAM_GPIO*%
X93497400Y-91135200D03*
%TO.N,SCL0*%
X104165400Y-91059000D03*
%TO.N,SDA0*%
X101752400Y-90627200D03*
%TO.N,GND*%
X102031800Y-94589600D03*
%TO.N,CAM1_D2_N*%
X104241600Y-95728130D03*
%TO.N,CAM1_D2_P*%
X104241600Y-95076670D03*
%TO.N,CAM1_D3_N*%
X104292400Y-94229530D03*
%TO.N,CAM1_D3_P*%
X104292400Y-93578070D03*
%TO.N,CAM1_D3_N*%
X93687668Y-93074270D03*
%TO.N,CAM1_D3_P*%
X93687668Y-93725730D03*
%TO.N,CAM1_D0_P*%
X93799153Y-99325730D03*
%TO.N,CAM1_D0_N*%
X93799153Y-98674270D03*
%TO.N,CAM1_D1_P*%
X93692365Y-97725730D03*
%TO.N,CAM1_D1_N*%
X93692365Y-97074270D03*
%TO.N,CAM1_C_N*%
X93811211Y-95874270D03*
%TO.N,CAM1_C_P*%
X93811211Y-96525730D03*
%TO.N,CAM1_D2_N*%
X93770992Y-94274270D03*
%TO.N,CAM1_D2_P*%
X93770992Y-94925730D03*
%TO.N,CAM1_C_N*%
X101867665Y-97165729D03*
%TO.N,CAM1_D1_N*%
X104267000Y-98665730D03*
%TO.N,CAM1_D1_P*%
X104267000Y-98014270D03*
%TO.N,CAM1_D0_N*%
X104368600Y-100165729D03*
%TO.N,CAM1_D0_P*%
X104368600Y-99514269D03*
%TO.N,GND*%
X100830000Y-89330000D03*
X105750000Y-85640000D03*
X106850000Y-88420000D03*
X106930000Y-102250000D03*
X104120000Y-111010000D03*
X104170000Y-107950000D03*
X99187000Y-99644200D03*
%TO.N,USB2_SSTX+*%
X98300000Y-98790000D03*
%TO.N,USB2_SSTX-*%
X99190000Y-98656500D03*
%TO.N,USB2_SSRX+*%
X98210000Y-97200000D03*
%TO.N,USB2_SSRX-*%
X98970000Y-97136500D03*
%TO.N,ETH_PAYLOAD_TX_POSTMAG_N*%
X92730000Y-106886360D03*
%TO.N,ETH_PAYLOAD_TX_POSTMAG_P*%
X92730000Y-106313640D03*
%TO.N,ETH_PAYLOAD_RX_POSTMAG_N*%
X92786465Y-104191360D03*
%TO.N,ETH_PAYLOAD_RX_POSTMAG_P*%
X92786465Y-103618640D03*
%TD*%
D12*
%TO.N,CAM1_D2_P*%
X93915112Y-94781610D02*
X93770992Y-94925730D01*
X93915112Y-94781610D02*
X98342600Y-94781610D01*
X98642600Y-95366784D02*
X98642600Y-95081610D01*
X99242600Y-95081610D02*
X99242600Y-95366784D01*
X100115426Y-94781610D02*
X99542600Y-94781610D01*
X101802226Y-93094810D02*
X100115426Y-94781610D01*
X105309374Y-93094810D02*
X101802226Y-93094810D01*
X105685590Y-93471026D02*
X105309374Y-93094810D01*
X105685590Y-94869974D02*
X105685590Y-93471026D01*
X104241600Y-95076670D02*
X104385720Y-95220790D01*
X98642590Y-95081610D02*
G75*
G03*
X98342600Y-94781610I-299990J10D01*
G01*
X98642616Y-95366784D02*
G75*
G03*
X98942600Y-95666784I299984J-16D01*
G01*
X104385720Y-95220790D02*
X105334774Y-95220790D01*
X105334774Y-95220790D02*
X105685590Y-94869974D01*
X98942600Y-95666800D02*
G75*
G03*
X99242600Y-95366784I0J300000D01*
G01*
X99542600Y-94781600D02*
G75*
G03*
X99242600Y-95081610I0J-300000D01*
G01*
D13*
%TO.N,CAM_GPIO*%
X95986600Y-91135200D02*
X97891600Y-93040200D01*
X97891600Y-93040200D02*
X100203000Y-93040200D01*
X93497400Y-91135200D02*
X95986600Y-91135200D01*
D12*
%TO.N,CAM1_D2_N*%
X104385720Y-95584010D02*
X104241600Y-95728130D01*
X106048810Y-95020426D02*
X105485226Y-95584010D01*
X105459826Y-92731590D02*
X106048810Y-93320574D01*
X101651774Y-92731590D02*
X105459826Y-92731590D01*
X99964974Y-94418390D02*
X101651774Y-92731590D01*
X93915112Y-94418390D02*
X99964974Y-94418390D01*
X93770992Y-94274270D02*
X93915112Y-94418390D01*
X105485226Y-95584010D02*
X104385720Y-95584010D01*
X106048810Y-93320574D02*
X106048810Y-95020426D01*
%TD*%
M02*
