%TF.GenerationSoftware,KiCad,Pcbnew,7.0.10*%
%TF.CreationDate,2024-02-01T11:04:59-05:00*%
%TF.ProjectId,quad_payload_adapter,71756164-5f70-4617-996c-6f61645f6164,rev?*%
%TF.SameCoordinates,Original*%
%TF.FileFunction,Copper,L1,Top*%
%TF.FilePolarity,Positive*%
%FSLAX46Y46*%
G04 Gerber Fmt 4.6, Leading zero omitted, Abs format (unit mm)*
G04 Created by KiCad (PCBNEW 7.0.10) date 2024-02-01 11:04:59*
%MOMM*%
%LPD*%
G01*
G04 APERTURE LIST*
G04 Aperture macros list*
%AMRoundRect*
0 Rectangle with rounded corners*
0 $1 Rounding radius*
0 $2 $3 $4 $5 $6 $7 $8 $9 X,Y pos of 4 corners*
0 Add a 4 corners polygon primitive as box body*
4,1,4,$2,$3,$4,$5,$6,$7,$8,$9,$2,$3,0*
0 Add four circle primitives for the rounded corners*
1,1,$1+$1,$2,$3*
1,1,$1+$1,$4,$5*
1,1,$1+$1,$6,$7*
1,1,$1+$1,$8,$9*
0 Add four rect primitives between the rounded corners*
20,1,$1+$1,$2,$3,$4,$5,0*
20,1,$1+$1,$4,$5,$6,$7,0*
20,1,$1+$1,$6,$7,$8,$9,0*
20,1,$1+$1,$8,$9,$2,$3,0*%
G04 Aperture macros list end*
%TA.AperFunction,SMDPad,CuDef*%
%ADD10RoundRect,0.150000X-0.700000X0.150000X-0.700000X-0.150000X0.700000X-0.150000X0.700000X0.150000X0*%
%TD*%
%TA.AperFunction,SMDPad,CuDef*%
%ADD11RoundRect,0.250000X-1.150000X0.250000X-1.150000X-0.250000X1.150000X-0.250000X1.150000X0.250000X0*%
%TD*%
%TA.AperFunction,ComponentPad*%
%ADD12C,4.400000*%
%TD*%
%TA.AperFunction,SMDPad,CuDef*%
%ADD13RoundRect,0.100000X-0.130000X-0.100000X0.130000X-0.100000X0.130000X0.100000X-0.130000X0.100000X0*%
%TD*%
%TA.AperFunction,SMDPad,CuDef*%
%ADD14R,1.117600X0.304800*%
%TD*%
%TA.AperFunction,SMDPad,CuDef*%
%ADD15R,3.124200X2.311400*%
%TD*%
%TA.AperFunction,SMDPad,CuDef*%
%ADD16RoundRect,0.100000X0.100000X-0.130000X0.100000X0.130000X-0.100000X0.130000X-0.100000X-0.130000X0*%
%TD*%
%TA.AperFunction,SMDPad,CuDef*%
%ADD17RoundRect,0.218750X-0.218750X-0.256250X0.218750X-0.256250X0.218750X0.256250X-0.218750X0.256250X0*%
%TD*%
%TA.AperFunction,SMDPad,CuDef*%
%ADD18RoundRect,0.250000X0.650000X-0.350000X0.650000X0.350000X-0.650000X0.350000X-0.650000X-0.350000X0*%
%TD*%
%TA.AperFunction,SMDPad,CuDef*%
%ADD19RoundRect,0.150000X0.625000X-0.150000X0.625000X0.150000X-0.625000X0.150000X-0.625000X-0.150000X0*%
%TD*%
%TA.AperFunction,SMDPad,CuDef*%
%ADD20C,1.000000*%
%TD*%
%TA.AperFunction,ViaPad*%
%ADD21C,0.400000*%
%TD*%
%TA.AperFunction,Conductor*%
%ADD22C,0.144780*%
%TD*%
%TA.AperFunction,Conductor*%
%ADD23C,0.254000*%
%TD*%
%TA.AperFunction,Conductor*%
%ADD24C,0.111760*%
%TD*%
%TA.AperFunction,Conductor*%
%ADD25C,0.381000*%
%TD*%
%TA.AperFunction,Conductor*%
%ADD26C,0.152400*%
%TD*%
%TA.AperFunction,Conductor*%
%ADD27C,0.127000*%
%TD*%
%TA.AperFunction,Conductor*%
%ADD28C,0.132080*%
%TD*%
%TA.AperFunction,Conductor*%
%ADD29C,0.508000*%
%TD*%
G04 APERTURE END LIST*
D10*
%TO.P,J4,1,Pin_1*%
%TO.N,ETH_PAYLOAD_RX_POSTMAG_P*%
X94050000Y-103280000D03*
%TO.P,J4,2,Pin_2*%
%TO.N,ETH_PAYLOAD_RX_POSTMAG_N*%
X94050000Y-104530000D03*
%TO.P,J4,3,Pin_3*%
%TO.N,ETH_PAYLOAD_TX_POSTMAG_P*%
X94050000Y-105780000D03*
%TO.P,J4,4,Pin_4*%
%TO.N,ETH_PAYLOAD_TX_POSTMAG_N*%
X94050000Y-107030000D03*
D11*
%TO.P,J4,MP*%
%TO.N,N/C*%
X97400000Y-101430000D03*
X97400000Y-108880000D03*
%TD*%
D12*
%TO.P,H1,1,1*%
%TO.N,GND*%
X96000000Y-87000000D03*
%TD*%
D13*
%TO.P,R1,1*%
%TO.N,Net-(D1-K)*%
X104410000Y-85630000D03*
%TO.P,R1,2*%
%TO.N,GND*%
X105050000Y-85630000D03*
%TD*%
D14*
%TO.P,J1,1,Pin_1*%
%TO.N,GND*%
X103050000Y-100589999D03*
%TO.P,J1,2,Pin_2*%
%TO.N,CAM1_D0_N*%
X103050000Y-100090000D03*
%TO.P,J1,3,Pin_3*%
%TO.N,CAM1_D0_P*%
X103050000Y-99589998D03*
%TO.P,J1,4,Pin_4*%
%TO.N,GND*%
X103050000Y-99089999D03*
%TO.P,J1,5,Pin_5*%
%TO.N,CAM1_D1_N*%
X103050000Y-98590000D03*
%TO.P,J1,6,Pin_6*%
%TO.N,CAM1_D1_P*%
X103050000Y-98089999D03*
%TO.P,J1,7,Pin_7*%
%TO.N,GND*%
X103050000Y-97590000D03*
%TO.P,J1,8,Pin_8*%
%TO.N,CAM1_C_N*%
X103050000Y-97089998D03*
%TO.P,J1,9,Pin_9*%
%TO.N,CAM1_C_P*%
X103050000Y-96589999D03*
%TO.P,J1,10,Pin_10*%
%TO.N,GND*%
X103050000Y-96090000D03*
%TO.P,J1,11,Pin_11*%
%TO.N,CAM1_D2_N*%
X103050000Y-95589999D03*
%TO.P,J1,12,Pin_12*%
%TO.N,CAM1_D2_P*%
X103050000Y-95090000D03*
%TO.P,J1,13,Pin_13*%
%TO.N,GND*%
X103050000Y-94589998D03*
%TO.P,J1,14,Pin_14*%
%TO.N,CAM1_D3_N*%
X103050000Y-94089999D03*
%TO.P,J1,15,Pin_15*%
%TO.N,CAM1_D3_P*%
X103050000Y-93590000D03*
%TO.P,J1,16,Pin_16*%
%TO.N,GND*%
X103050000Y-93089999D03*
%TO.P,J1,17,Pin_17*%
%TO.N,CAM_GPIO*%
X103050000Y-92590000D03*
%TO.P,J1,18,Pin_18*%
%TO.N,unconnected-(J1-Pin_18-Pad18)*%
X103050000Y-92089998D03*
%TO.P,J1,19,Pin_19*%
%TO.N,GND*%
X103050000Y-91589999D03*
%TO.P,J1,20,Pin_20*%
%TO.N,SCL0*%
X103050000Y-91090000D03*
%TO.P,J1,21,Pin_21*%
%TO.N,SDA0*%
X103050000Y-90589999D03*
%TO.P,J1,22,Pin_22*%
%TO.N,+3.3V*%
X103050000Y-90090000D03*
D15*
%TO.P,J1,23,S1*%
%TO.N,GND*%
X104749999Y-102254999D03*
%TO.P,J1,24,S2*%
X104749999Y-88424999D03*
%TD*%
D16*
%TO.P,C1,1*%
%TO.N,+3.3V*%
X101470000Y-89955000D03*
%TO.P,C1,2*%
%TO.N,GND*%
X101470000Y-89315000D03*
%TD*%
D17*
%TO.P,D1,1,K*%
%TO.N,Net-(D1-K)*%
X103888500Y-84229000D03*
%TO.P,D1,2,A*%
%TO.N,+3.3V*%
X105463500Y-84229000D03*
%TD*%
D12*
%TO.P,H2,1,1*%
%TO.N,GND*%
X96000000Y-113000000D03*
%TD*%
D18*
%TO.P,J3,MP*%
%TO.N,N/C*%
X106695000Y-105670000D03*
X106695000Y-114270000D03*
D19*
%TO.P,J3,7,Pin_7*%
%TO.N,+VIN_PROT_PAYLOAD*%
X102820000Y-106970000D03*
%TO.P,J3,6,Pin_6*%
%TO.N,GND*%
X102820000Y-107970000D03*
%TO.P,J3,5,Pin_5*%
%TO.N,USB2_SSRX-*%
X102820000Y-108970000D03*
%TO.P,J3,4,Pin_4*%
%TO.N,USB2_SSRX+*%
X102820000Y-109970000D03*
%TO.P,J3,3,Pin_3*%
%TO.N,GND*%
X102820000Y-110970000D03*
%TO.P,J3,2,Pin_2*%
%TO.N,USB2_SSTX-*%
X102820000Y-111970000D03*
%TO.P,J3,1,Pin_1*%
%TO.N,USB2_SSTX+*%
X102820000Y-112970000D03*
%TD*%
D20*
%TO.P,TP1,1,1*%
%TO.N,+3.3V*%
X100634800Y-86741000D03*
%TD*%
%TO.P,TP2,1,1*%
%TO.N,+VIN_PROT_PAYLOAD*%
X105994200Y-116713000D03*
%TD*%
D21*
%TO.N,CAM1_C_P*%
X101244400Y-97256600D03*
%TO.N,GND*%
X95504000Y-96774000D03*
X96316800Y-102514400D03*
X96266000Y-98298000D03*
X95707200Y-98272600D03*
X104089200Y-100660200D03*
X102158800Y-99085400D03*
X104495600Y-97231200D03*
X102057200Y-95859600D03*
X101955600Y-93675200D03*
X101955600Y-91567000D03*
%TO.N,CAM_GPIO*%
X100203000Y-93040200D03*
%TO.N,+3.3V*%
X98425000Y-106578400D03*
%TO.N,+VIN_PROT_PAYLOAD*%
X102819200Y-106121200D03*
%TO.N,GND*%
X96393000Y-95402400D03*
X95681800Y-95427802D03*
X95631000Y-93980000D03*
X95961200Y-92837000D03*
X95961200Y-106705400D03*
X96342200Y-104597200D03*
X95681800Y-104597200D03*
X93751400Y-101803200D03*
%TO.N,CAM_GPIO*%
X93497400Y-91135200D03*
%TO.N,SCL0*%
X104165400Y-91059000D03*
%TO.N,SDA0*%
X101752400Y-90627200D03*
%TO.N,GND*%
X102031800Y-94589600D03*
%TO.N,CAM1_D2_N*%
X104241600Y-95728130D03*
%TO.N,CAM1_D2_P*%
X104241600Y-95076670D03*
%TO.N,CAM1_D3_N*%
X104292400Y-94229530D03*
%TO.N,CAM1_D3_P*%
X104292400Y-93578070D03*
%TO.N,CAM1_D3_N*%
X93687668Y-93074270D03*
%TO.N,CAM1_D3_P*%
X93687668Y-93725730D03*
%TO.N,CAM1_D0_P*%
X93799153Y-99325730D03*
%TO.N,CAM1_D0_N*%
X93799153Y-98674270D03*
%TO.N,CAM1_D1_P*%
X93692365Y-97725730D03*
%TO.N,CAM1_D1_N*%
X93692365Y-97074270D03*
%TO.N,CAM1_C_N*%
X93811211Y-95874270D03*
%TO.N,CAM1_C_P*%
X93811211Y-96525730D03*
%TO.N,CAM1_D2_N*%
X93770992Y-94274270D03*
%TO.N,CAM1_D2_P*%
X93770992Y-94925730D03*
%TO.N,CAM1_C_N*%
X101867665Y-97165729D03*
%TO.N,CAM1_D1_N*%
X104267000Y-98665730D03*
%TO.N,CAM1_D1_P*%
X104267000Y-98014270D03*
%TO.N,CAM1_D0_N*%
X104368600Y-100165729D03*
%TO.N,CAM1_D0_P*%
X104368600Y-99514269D03*
%TO.N,GND*%
X100830000Y-89330000D03*
X105750000Y-85640000D03*
X106850000Y-88420000D03*
X106930000Y-102250000D03*
X104120000Y-111010000D03*
X104170000Y-107950000D03*
X99187000Y-99644200D03*
%TO.N,USB2_SSTX+*%
X98300000Y-98790000D03*
%TO.N,USB2_SSTX-*%
X99190000Y-98656500D03*
%TO.N,USB2_SSRX+*%
X98210000Y-97200000D03*
%TO.N,USB2_SSRX-*%
X98970000Y-97136500D03*
%TO.N,ETH_PAYLOAD_TX_POSTMAG_N*%
X92730000Y-106886360D03*
%TO.N,ETH_PAYLOAD_TX_POSTMAG_P*%
X92730000Y-106313640D03*
%TO.N,ETH_PAYLOAD_RX_POSTMAG_N*%
X92786465Y-104191360D03*
%TO.N,ETH_PAYLOAD_RX_POSTMAG_P*%
X92786465Y-103618640D03*
%TD*%
D22*
%TO.N,USB2_SSTX+*%
X102345000Y-112970000D02*
X102820000Y-112970000D01*
X101980890Y-112605890D02*
X102345000Y-112970000D01*
X101288512Y-112605890D02*
X101980890Y-112605890D01*
X99787710Y-111105088D02*
X101288512Y-112605890D01*
X99787710Y-103896266D02*
X99787710Y-111105088D01*
X99714276Y-103822833D02*
X99714277Y-103822833D01*
X99640843Y-103296266D02*
X99640843Y-103749400D01*
X99714277Y-103222833D02*
X99714276Y-103222833D01*
X99787710Y-99192488D02*
X99787710Y-103149400D01*
X98856800Y-99034600D02*
X99629822Y-99034600D01*
X98612200Y-98790000D02*
X98856800Y-99034600D01*
X99629822Y-99034600D02*
X99787710Y-99192488D01*
X98300000Y-98790000D02*
X98612200Y-98790000D01*
X99640867Y-103749400D02*
G75*
G03*
X99714276Y-103822833I73433J0D01*
G01*
X99787767Y-103896266D02*
G75*
G03*
X99714277Y-103822833I-73467J-34D01*
G01*
X99714276Y-103222843D02*
G75*
G03*
X99640843Y-103296266I24J-73457D01*
G01*
X99714277Y-103222810D02*
G75*
G03*
X99787710Y-103149400I23J73410D01*
G01*
D23*
%TO.N,+3.3V*%
X99452800Y-89955000D02*
X101470000Y-89955000D01*
X97612200Y-91795600D02*
X99452800Y-89955000D01*
X99161600Y-100584000D02*
X97612200Y-99034600D01*
X98425000Y-103149400D02*
X99161600Y-102412800D01*
X97612200Y-99034600D02*
X97612200Y-91795600D01*
X98425000Y-106578400D02*
X98425000Y-103149400D01*
X99161600Y-102412800D02*
X99161600Y-100584000D01*
D22*
%TO.N,USB2_SSTX-*%
X101980890Y-112334110D02*
X102345000Y-111970000D01*
X102345000Y-111970000D02*
X102820000Y-111970000D01*
X100059490Y-99079912D02*
X100059490Y-110992512D01*
X99709378Y-98729800D02*
X100059490Y-99079912D01*
X99263300Y-98729800D02*
X99709378Y-98729800D01*
X101401088Y-112334110D02*
X101980890Y-112334110D01*
X99190000Y-98656500D02*
X99263300Y-98729800D01*
X100059490Y-110992512D02*
X101401088Y-112334110D01*
D24*
%TO.N,CAM1_C_P*%
X101842611Y-96658389D02*
X102981610Y-96658389D01*
X101244400Y-97256600D02*
X101842611Y-96658389D01*
X102981610Y-96658389D02*
X103050000Y-96589999D01*
D25*
%TO.N,+VIN_PROT_PAYLOAD*%
X104952800Y-115671600D02*
X105994200Y-116713000D01*
X104952800Y-107213400D02*
X104952800Y-115671600D01*
X102820000Y-106970000D02*
X104709400Y-106970000D01*
X104709400Y-106970000D02*
X104952800Y-107213400D01*
D26*
%TO.N,+3.3V*%
X100634800Y-86741000D02*
X102124600Y-86741000D01*
D23*
X102150000Y-86715600D02*
X102150000Y-84260000D01*
X102150000Y-90090000D02*
X102150000Y-86715600D01*
D26*
X102124600Y-86741000D02*
X102150000Y-86715600D01*
%TO.N,GND*%
X104018999Y-100589999D02*
X104089200Y-100660200D01*
X103050000Y-100589999D02*
X104018999Y-100589999D01*
X102163399Y-99089999D02*
X102158800Y-99085400D01*
X103050000Y-99089999D02*
X102163399Y-99089999D01*
X103050000Y-97590000D02*
X104136800Y-97590000D01*
X104136800Y-97590000D02*
X104495600Y-97231200D01*
X102287600Y-96090000D02*
X102057200Y-95859600D01*
X103050000Y-96090000D02*
X102287600Y-96090000D01*
X102540801Y-93089999D02*
X101955600Y-93675200D01*
X103050000Y-93089999D02*
X102540801Y-93089999D01*
D23*
X101978599Y-91589999D02*
X101955600Y-91567000D01*
X103050000Y-91589999D02*
X101978599Y-91589999D01*
D27*
%TO.N,CAM_GPIO*%
X100653200Y-92590000D02*
X103050000Y-92590000D01*
X100203000Y-93040200D02*
X100653200Y-92590000D01*
D25*
%TO.N,+VIN_PROT_PAYLOAD*%
X102820000Y-106122000D02*
X102819200Y-106121200D01*
X102820000Y-106970000D02*
X102820000Y-106122000D01*
D27*
%TO.N,SCL0*%
X103050000Y-91090000D02*
X104134400Y-91090000D01*
X104134400Y-91090000D02*
X104165400Y-91059000D01*
%TO.N,SDA0*%
X101789601Y-90589999D02*
X103050000Y-90589999D01*
X101752400Y-90627200D02*
X101789601Y-90589999D01*
%TO.N,GND*%
X102032198Y-94589998D02*
X102031800Y-94589600D01*
X103050000Y-94589998D02*
X102032198Y-94589998D01*
D28*
%TO.N,CAM1_D2_N*%
X104103469Y-95589999D02*
X104241600Y-95728130D01*
X103050000Y-95589999D02*
X104103469Y-95589999D01*
%TO.N,CAM1_D2_P*%
X104228270Y-95090000D02*
X104241600Y-95076670D01*
X103050000Y-95090000D02*
X104228270Y-95090000D01*
%TO.N,CAM1_D3_N*%
X104152869Y-94089999D02*
X104292400Y-94229530D01*
X103050000Y-94089999D02*
X104152869Y-94089999D01*
%TO.N,CAM1_D3_P*%
X103050000Y-93590000D02*
X104280470Y-93590000D01*
X104280470Y-93590000D02*
X104292400Y-93578070D01*
D24*
%TO.N,CAM1_C_N*%
X102011785Y-97021609D02*
X101867665Y-97165729D01*
X102981611Y-97021609D02*
X102011785Y-97021609D01*
X103050000Y-97089998D02*
X102981611Y-97021609D01*
D28*
%TO.N,CAM1_D1_N*%
X104122880Y-98521610D02*
X104267000Y-98665730D01*
X103118390Y-98521610D02*
X104122880Y-98521610D01*
X103050000Y-98590000D02*
X103118390Y-98521610D01*
%TO.N,CAM1_D1_P*%
X104122880Y-98158390D02*
X104267000Y-98014270D01*
X103118391Y-98158390D02*
X104122880Y-98158390D01*
X103050000Y-98089999D02*
X103118391Y-98158390D01*
%TO.N,CAM1_D0_N*%
X104224480Y-100021609D02*
X104368600Y-100165729D01*
X103956592Y-100021609D02*
X104224480Y-100021609D01*
X103888201Y-100090000D02*
X103956592Y-100021609D01*
X103050000Y-100090000D02*
X103888201Y-100090000D01*
%TO.N,CAM1_D0_P*%
X104224480Y-99658389D02*
X104368600Y-99514269D01*
X103956592Y-99658389D02*
X104224480Y-99658389D01*
X103888201Y-99589998D02*
X103956592Y-99658389D01*
X103050000Y-99589998D02*
X103888201Y-99589998D01*
D23*
%TO.N,+3.3V*%
X105463500Y-83943500D02*
X105463500Y-84229000D01*
X104890000Y-83370000D02*
X105463500Y-83943500D01*
X103040000Y-83370000D02*
X104890000Y-83370000D01*
X102150000Y-84260000D02*
X103040000Y-83370000D01*
X102150000Y-90090000D02*
X101605000Y-90090000D01*
X103050000Y-90090000D02*
X102150000Y-90090000D01*
X101605000Y-90090000D02*
X101470000Y-89955000D01*
D26*
%TO.N,Net-(D1-K)*%
X103910000Y-85040000D02*
X103888500Y-85018500D01*
X103910000Y-85130000D02*
X103910000Y-85040000D01*
X104410000Y-85630000D02*
X103910000Y-85130000D01*
X103888500Y-85018500D02*
X103888500Y-84229000D01*
%TO.N,GND*%
X101470000Y-89315000D02*
X100845000Y-89315000D01*
X100845000Y-89315000D02*
X100830000Y-89330000D01*
X105740000Y-85630000D02*
X105750000Y-85640000D01*
X105050000Y-85630000D02*
X105740000Y-85630000D01*
D29*
X106845001Y-88424999D02*
X106850000Y-88420000D01*
X104749999Y-88424999D02*
X106845001Y-88424999D01*
X104749999Y-102254999D02*
X106925001Y-102254999D01*
X106925001Y-102254999D02*
X106930000Y-102250000D01*
D23*
X102820000Y-110970000D02*
X104080000Y-110970000D01*
X104080000Y-110970000D02*
X104120000Y-111010000D01*
X104150000Y-107970000D02*
X104170000Y-107950000D01*
X102820000Y-107970000D02*
X104150000Y-107970000D01*
D22*
%TO.N,USB2_SSRX+*%
X98545890Y-97535890D02*
X100173712Y-97535890D01*
X98545890Y-97535890D02*
X98210000Y-97200000D01*
%TO.N,USB2_SSRX-*%
X99097610Y-97264110D02*
X98970000Y-97136500D01*
X100286288Y-97264110D02*
X99097610Y-97264110D01*
X101215890Y-108853712D02*
X101215890Y-98193712D01*
X101696288Y-109334110D02*
X101215890Y-108853712D01*
X101980890Y-109334110D02*
X101696288Y-109334110D01*
X101215890Y-98193712D02*
X100286288Y-97264110D01*
X102820000Y-108970000D02*
X102345000Y-108970000D01*
%TO.N,USB2_SSRX+*%
X100944110Y-98306288D02*
X100173712Y-97535890D01*
X100944110Y-108966288D02*
X100944110Y-98306288D01*
X102345000Y-109970000D02*
X101980890Y-109605890D01*
X102820000Y-109970000D02*
X102345000Y-109970000D01*
X101583712Y-109605890D02*
X100944110Y-108966288D01*
X101980890Y-109605890D02*
X101583712Y-109605890D01*
%TO.N,USB2_SSRX-*%
X102345000Y-108970000D02*
X101980890Y-109334110D01*
D28*
%TO.N,ETH_PAYLOAD_TX_POSTMAG_P*%
X93577401Y-106252599D02*
X94050000Y-105780000D01*
X93301640Y-106252599D02*
X93577401Y-106252599D01*
X92967707Y-106217600D02*
X93266641Y-106217600D01*
X92871667Y-106313640D02*
X92967707Y-106217600D01*
X92730000Y-106313640D02*
X92871667Y-106313640D01*
%TO.N,ETH_PAYLOAD_TX_POSTMAG_N*%
X93577401Y-106557401D02*
X94050000Y-107030000D01*
X93185001Y-106557401D02*
X93577401Y-106557401D01*
%TO.N,ETH_PAYLOAD_TX_POSTMAG_P*%
X93266641Y-106217600D02*
X93301640Y-106252599D01*
%TO.N,ETH_PAYLOAD_TX_POSTMAG_N*%
X93150000Y-106522400D02*
X93185001Y-106557401D01*
X92730000Y-106886360D02*
X93093960Y-106522400D01*
X93093960Y-106522400D02*
X93150000Y-106522400D01*
%TO.N,ETH_PAYLOAD_RX_POSTMAG_N*%
X92920424Y-104057401D02*
X92786465Y-104191360D01*
X93577401Y-104057401D02*
X92920424Y-104057401D01*
X94050000Y-104530000D02*
X93577401Y-104057401D01*
%TO.N,ETH_PAYLOAD_RX_POSTMAG_P*%
X92920424Y-103752599D02*
X92786465Y-103618640D01*
X94050000Y-103280000D02*
X93577401Y-103752599D01*
X93577401Y-103752599D02*
X92920424Y-103752599D01*
%TD*%
M02*
