%TF.GenerationSoftware,KiCad,Pcbnew,7.0.10*%
%TF.CreationDate,2024-02-01T11:04:59-05:00*%
%TF.ProjectId,quad_payload_adapter,71756164-5f70-4617-996c-6f61645f6164,rev?*%
%TF.SameCoordinates,Original*%
%TF.FileFunction,Copper,L6,Bot*%
%TF.FilePolarity,Positive*%
%FSLAX46Y46*%
G04 Gerber Fmt 4.6, Leading zero omitted, Abs format (unit mm)*
G04 Created by KiCad (PCBNEW 7.0.10) date 2024-02-01 11:04:59*
%MOMM*%
%LPD*%
G01*
G04 APERTURE LIST*
%TA.AperFunction,SMDPad,CuDef*%
%ADD10R,0.700000X0.350000*%
%TD*%
%TA.AperFunction,SMDPad,CuDef*%
%ADD11R,0.660000X0.230000*%
%TD*%
%TA.AperFunction,ComponentPad*%
%ADD12C,4.400000*%
%TD*%
%TA.AperFunction,ViaPad*%
%ADD13C,0.400000*%
%TD*%
%TA.AperFunction,Conductor*%
%ADD14C,0.127000*%
%TD*%
%TA.AperFunction,Conductor*%
%ADD15C,0.152400*%
%TD*%
%TA.AperFunction,Conductor*%
%ADD16C,0.381000*%
%TD*%
%TA.AperFunction,Conductor*%
%ADD17C,0.132080*%
%TD*%
%TA.AperFunction,Conductor*%
%ADD18C,0.144780*%
%TD*%
G04 APERTURE END LIST*
D10*
%TO.P,J2,SH,Shield*%
%TO.N,GND*%
X96860000Y-92665000D03*
X95140000Y-92665000D03*
X96860000Y-107335000D03*
X95140000Y-107335000D03*
D11*
%TO.P,J2,70,Pin_70*%
%TO.N,+VIN_PROT_PAYLOAD*%
X97355000Y-93200000D03*
%TO.P,J2,69,Pin_69*%
X97355000Y-93600000D03*
%TO.P,J2,68,Pin_68*%
X97355000Y-94000000D03*
%TO.P,J2,67,Pin_67*%
X97355000Y-94400000D03*
%TO.P,J2,66,Pin_66*%
X97355000Y-94800000D03*
%TO.P,J2,65,Pin_65*%
%TO.N,GND*%
X97355000Y-95200000D03*
%TO.P,J2,64,Pin_64*%
X97355000Y-95600000D03*
%TO.P,J2,63,Pin_63*%
%TO.N,unconnected-(J2-Pin_63-Pad63)*%
X97355000Y-96000000D03*
%TO.P,J2,62,Pin_62*%
%TO.N,unconnected-(J2-Pin_62-Pad62)*%
X97355000Y-96400000D03*
%TO.P,J2,61,Pin_61*%
%TO.N,unconnected-(J2-Pin_61-Pad61)*%
X97355000Y-96800000D03*
%TO.P,J2,60,Pin_60*%
%TO.N,USB2_SSRX+*%
X97355000Y-97200000D03*
%TO.P,J2,59,Pin_59*%
%TO.N,USB2_SSRX-*%
X97355000Y-97600000D03*
%TO.P,J2,58,Pin_58*%
%TO.N,GND*%
X97355000Y-98000000D03*
%TO.P,J2,57,Pin_57*%
X97355000Y-98400000D03*
%TO.P,J2,56,Pin_56*%
%TO.N,USB2_SSTX+*%
X97355000Y-98800000D03*
%TO.P,J2,55,Pin_55*%
%TO.N,USB2_SSTX-*%
X97355000Y-99200000D03*
%TO.P,J2,54,Pin_54*%
%TO.N,GND*%
X97355000Y-99600000D03*
%TO.P,J2,53,Pin_53*%
%TO.N,unconnected-(J2-Pin_53-Pad53)*%
X97355000Y-100000000D03*
%TO.P,J2,52,Pin_52*%
%TO.N,unconnected-(J2-Pin_52-Pad52)*%
X97355000Y-100400000D03*
%TO.P,J2,51,Pin_51*%
%TO.N,unconnected-(J2-Pin_51-Pad51)*%
X97355000Y-100800000D03*
%TO.P,J2,50,Pin_50*%
%TO.N,unconnected-(J2-Pin_50-Pad50)*%
X97355000Y-101200000D03*
%TO.P,J2,49,Pin_49*%
%TO.N,GND*%
X97355000Y-101600000D03*
%TO.P,J2,48,Pin_48*%
X97355000Y-102000000D03*
%TO.P,J2,47,Pin_47*%
%TO.N,unconnected-(J2-Pin_47-Pad47)*%
X97355000Y-102400000D03*
%TO.P,J2,46,Pin_46*%
%TO.N,unconnected-(J2-Pin_46-Pad46)*%
X97355000Y-102800000D03*
%TO.P,J2,45,Pin_45*%
%TO.N,unconnected-(J2-Pin_45-Pad45)*%
X97355000Y-103200000D03*
%TO.P,J2,44,Pin_44*%
%TO.N,unconnected-(J2-Pin_44-Pad44)*%
X97355000Y-103600000D03*
%TO.P,J2,43,Pin_43*%
%TO.N,unconnected-(J2-Pin_43-Pad43)*%
X97355000Y-104000000D03*
%TO.P,J2,42,Pin_42*%
%TO.N,GND*%
X97355000Y-104400000D03*
%TO.P,J2,41,Pin_41*%
X97355000Y-104800000D03*
%TO.P,J2,40,Pin_40*%
%TO.N,unconnected-(J2-Pin_40-Pad40)*%
X97355000Y-105200000D03*
%TO.P,J2,39,Pin_39*%
%TO.N,unconnected-(J2-Pin_39-Pad39)*%
X97355000Y-105600000D03*
%TO.P,J2,38,Pin_38*%
%TO.N,unconnected-(J2-Pin_38-Pad38)*%
X97355000Y-106000000D03*
%TO.P,J2,37,Pin_37*%
%TO.N,+3.3V*%
X97355000Y-106400000D03*
%TO.P,J2,36,Pin_36*%
X97355000Y-106800000D03*
%TO.P,J2,35,Pin_35*%
%TO.N,CAM1_D3_N*%
X94645000Y-93200000D03*
%TO.P,J2,34,Pin_34*%
%TO.N,CAM1_D3_P*%
X94645000Y-93600000D03*
%TO.P,J2,33,Pin_33*%
%TO.N,GND*%
X94645000Y-94000000D03*
%TO.P,J2,32,Pin_32*%
%TO.N,CAM1_D2_N*%
X94645000Y-94400000D03*
%TO.P,J2,31,Pin_31*%
%TO.N,CAM1_D2_P*%
X94645000Y-94800000D03*
%TO.P,J2,30,Pin_30*%
%TO.N,GND*%
X94645000Y-95200000D03*
%TO.P,J2,29,Pin_29*%
X94645000Y-95600000D03*
%TO.P,J2,28,Pin_28*%
%TO.N,CAM1_C_N*%
X94645000Y-96000000D03*
%TO.P,J2,27,Pin_27*%
%TO.N,CAM1_C_P*%
X94645000Y-96400000D03*
%TO.P,J2,26,Pin_26*%
%TO.N,GND*%
X94645000Y-96800000D03*
%TO.P,J2,25,Pin_25*%
%TO.N,CAM1_D1_N*%
X94645000Y-97200000D03*
%TO.P,J2,24,Pin_24*%
%TO.N,CAM1_D1_P*%
X94645000Y-97600000D03*
%TO.P,J2,23,Pin_23*%
%TO.N,GND*%
X94645000Y-98000000D03*
%TO.P,J2,22,Pin_22*%
X94645000Y-98400000D03*
%TO.P,J2,21,Pin_21*%
%TO.N,CAM1_D0_N*%
X94645000Y-98800000D03*
%TO.P,J2,20,Pin_20*%
%TO.N,CAM1_D0_P*%
X94645000Y-99200000D03*
%TO.P,J2,19,Pin_19*%
%TO.N,GND*%
X94645000Y-99600000D03*
%TO.P,J2,18,Pin_18*%
%TO.N,SDA0*%
X94645000Y-100000000D03*
%TO.P,J2,17,Pin_17*%
%TO.N,SCL0*%
X94645000Y-100400000D03*
%TO.P,J2,16,Pin_16*%
%TO.N,CAM_GPIO*%
X94645000Y-100800000D03*
%TO.P,J2,15,Pin_15*%
%TO.N,unconnected-(J2-Pin_15-Pad15)*%
X94645000Y-101200000D03*
%TO.P,J2,14,Pin_14*%
%TO.N,GND*%
X94645000Y-101600000D03*
%TO.P,J2,13,Pin_13*%
X94645000Y-102000000D03*
%TO.P,J2,12,Pin_12*%
%TO.N,unconnected-(J2-Pin_12-Pad12)*%
X94645000Y-102400000D03*
%TO.P,J2,11,Pin_11*%
%TO.N,unconnected-(J2-Pin_11-Pad11)*%
X94645000Y-102800000D03*
%TO.P,J2,10,Pin_10*%
%TO.N,unconnected-(J2-Pin_10-Pad10)*%
X94645000Y-103200000D03*
%TO.P,J2,9,Pin_9*%
%TO.N,unconnected-(J2-Pin_9-Pad9)*%
X94645000Y-103600000D03*
%TO.P,J2,8,Pin_8*%
%TO.N,unconnected-(J2-Pin_8-Pad8)*%
X94645000Y-104000000D03*
%TO.P,J2,7,Pin_7*%
%TO.N,GND*%
X94645000Y-104400000D03*
%TO.P,J2,6,Pin_6*%
X94645000Y-104800000D03*
%TO.P,J2,5,Pin_5*%
%TO.N,unconnected-(J2-Pin_5-Pad5)*%
X94645000Y-105200000D03*
%TO.P,J2,4,Pin_4*%
%TO.N,ETH_PAYLOAD_RX_POSTMAG_P*%
X94645000Y-105600000D03*
%TO.P,J2,3,Pin_3*%
%TO.N,ETH_PAYLOAD_RX_POSTMAG_N*%
X94645000Y-106000000D03*
%TO.P,J2,2,Pin_2*%
%TO.N,ETH_PAYLOAD_TX_POSTMAG_P*%
X94645000Y-106400000D03*
%TO.P,J2,1,Pin_1*%
%TO.N,ETH_PAYLOAD_TX_POSTMAG_N*%
X94645000Y-106800000D03*
%TD*%
D12*
%TO.P,H1,1,1*%
%TO.N,GND*%
X96000000Y-87000000D03*
%TD*%
%TO.P,H2,1,1*%
%TO.N,GND*%
X96000000Y-113000000D03*
%TD*%
D13*
%TO.N,CAM1_C_P*%
X101244400Y-97256600D03*
%TO.N,GND*%
X95504000Y-96774000D03*
X96316800Y-102514400D03*
X96266000Y-98298000D03*
X95707200Y-98272600D03*
X104089200Y-100660200D03*
X102158800Y-99085400D03*
X104495600Y-97231200D03*
X102057200Y-95859600D03*
X101955600Y-93675200D03*
X101955600Y-91567000D03*
%TO.N,CAM_GPIO*%
X100203000Y-93040200D03*
%TO.N,+3.3V*%
X98425000Y-106578400D03*
%TO.N,+VIN_PROT_PAYLOAD*%
X102819200Y-106121200D03*
%TO.N,GND*%
X96393000Y-95402400D03*
X95681800Y-95427802D03*
X95631000Y-93980000D03*
X95961200Y-92837000D03*
X95961200Y-106705400D03*
X96342200Y-104597200D03*
X95681800Y-104597200D03*
X93751400Y-101803200D03*
%TO.N,CAM_GPIO*%
X93497400Y-91135200D03*
%TO.N,SCL0*%
X104165400Y-91059000D03*
%TO.N,SDA0*%
X101752400Y-90627200D03*
%TO.N,GND*%
X102031800Y-94589600D03*
%TO.N,CAM1_D2_N*%
X104241600Y-95728130D03*
%TO.N,CAM1_D2_P*%
X104241600Y-95076670D03*
%TO.N,CAM1_D3_N*%
X104292400Y-94229530D03*
%TO.N,CAM1_D3_P*%
X104292400Y-93578070D03*
%TO.N,CAM1_D3_N*%
X93687668Y-93074270D03*
%TO.N,CAM1_D3_P*%
X93687668Y-93725730D03*
%TO.N,CAM1_D0_P*%
X93799153Y-99325730D03*
%TO.N,CAM1_D0_N*%
X93799153Y-98674270D03*
%TO.N,CAM1_D1_P*%
X93692365Y-97725730D03*
%TO.N,CAM1_D1_N*%
X93692365Y-97074270D03*
%TO.N,CAM1_C_N*%
X93811211Y-95874270D03*
%TO.N,CAM1_C_P*%
X93811211Y-96525730D03*
%TO.N,CAM1_D2_N*%
X93770992Y-94274270D03*
%TO.N,CAM1_D2_P*%
X93770992Y-94925730D03*
%TO.N,CAM1_C_N*%
X101867665Y-97165729D03*
%TO.N,CAM1_D1_N*%
X104267000Y-98665730D03*
%TO.N,CAM1_D1_P*%
X104267000Y-98014270D03*
%TO.N,CAM1_D0_N*%
X104368600Y-100165729D03*
%TO.N,CAM1_D0_P*%
X104368600Y-99514269D03*
%TO.N,GND*%
X100830000Y-89330000D03*
X105750000Y-85640000D03*
X106850000Y-88420000D03*
X106930000Y-102250000D03*
X104120000Y-111010000D03*
X104170000Y-107950000D03*
X99187000Y-99644200D03*
%TO.N,USB2_SSTX+*%
X98300000Y-98790000D03*
%TO.N,USB2_SSTX-*%
X99190000Y-98656500D03*
%TO.N,USB2_SSRX+*%
X98210000Y-97200000D03*
%TO.N,USB2_SSRX-*%
X98970000Y-97136500D03*
%TO.N,ETH_PAYLOAD_TX_POSTMAG_N*%
X92730000Y-106886360D03*
%TO.N,ETH_PAYLOAD_TX_POSTMAG_P*%
X92730000Y-106313640D03*
%TO.N,ETH_PAYLOAD_RX_POSTMAG_N*%
X92786465Y-104191360D03*
%TO.N,ETH_PAYLOAD_RX_POSTMAG_P*%
X92786465Y-103618640D03*
%TD*%
D14*
%TO.N,GND*%
X94645000Y-95200000D02*
X95453998Y-95200000D01*
X95509602Y-95600000D02*
X95681800Y-95427802D01*
X95453998Y-95200000D02*
X95681800Y-95427802D01*
X94645000Y-95600000D02*
X95509602Y-95600000D01*
X96595400Y-95200000D02*
X96393000Y-95402400D01*
X97355000Y-95200000D02*
X96595400Y-95200000D01*
X96590600Y-95600000D02*
X96393000Y-95402400D01*
X97355000Y-95600000D02*
X96590600Y-95600000D01*
X96539400Y-104400000D02*
X96342200Y-104597200D01*
X97355000Y-104400000D02*
X96539400Y-104400000D01*
X96545000Y-104800000D02*
X96342200Y-104597200D01*
X97355000Y-104800000D02*
X96545000Y-104800000D01*
X95484600Y-104400000D02*
X95681800Y-104597200D01*
X94645000Y-104400000D02*
X95484600Y-104400000D01*
X95479000Y-104800000D02*
X95681800Y-104597200D01*
X94645000Y-104800000D02*
X95479000Y-104800000D01*
X93954600Y-101600000D02*
X93751400Y-101803200D01*
X94645000Y-101600000D02*
X93954600Y-101600000D01*
X93948200Y-102000000D02*
X93751400Y-101803200D01*
X94645000Y-102000000D02*
X93948200Y-102000000D01*
%TO.N,SDA0*%
X101523800Y-90398600D02*
X101752400Y-90627200D01*
X93040200Y-92518380D02*
X95159980Y-90398600D01*
X93040200Y-99847400D02*
X93040200Y-92518380D01*
X93192800Y-100000000D02*
X93040200Y-99847400D01*
X94645000Y-100000000D02*
X93192800Y-100000000D01*
%TO.N,SCL0*%
X93326510Y-100457000D02*
X93675200Y-100457000D01*
X93726000Y-91509290D02*
X92811600Y-92423690D01*
X92811600Y-92423690D02*
X92811600Y-99942090D01*
X93726000Y-91465401D02*
X93726000Y-91509290D01*
X92811600Y-99942090D02*
X93326510Y-100457000D01*
X103276400Y-90170000D02*
X95021401Y-90170000D01*
X104165400Y-91059000D02*
X103276400Y-90170000D01*
%TO.N,SDA0*%
X95159980Y-90398600D02*
X101523800Y-90398600D01*
%TO.N,SCL0*%
X95021401Y-90170000D02*
X93726000Y-91465401D01*
%TO.N,GND*%
X97355000Y-99600000D02*
X99142800Y-99600000D01*
X99142800Y-99600000D02*
X99187000Y-99644200D01*
D15*
X96133200Y-92665000D02*
X95961200Y-92837000D01*
X96860000Y-92665000D02*
X96133200Y-92665000D01*
X95331600Y-107335000D02*
X95961200Y-106705400D01*
X95140000Y-107335000D02*
X95331600Y-107335000D01*
X94645000Y-96800000D02*
X95478000Y-96800000D01*
X95478000Y-96800000D02*
X95504000Y-96774000D01*
X96316800Y-101955600D02*
X96316800Y-102514400D01*
X96672400Y-101600000D02*
X96316800Y-101955600D01*
X97355000Y-101600000D02*
X96672400Y-101600000D01*
X97355000Y-102000000D02*
X96831200Y-102000000D01*
X96831200Y-102000000D02*
X96316800Y-102514400D01*
X96368000Y-98400000D02*
X96266000Y-98298000D01*
X97355000Y-98400000D02*
X96368000Y-98400000D01*
X96564000Y-98000000D02*
X96266000Y-98298000D01*
X97355000Y-98000000D02*
X96564000Y-98000000D01*
X95434600Y-98000000D02*
X95707200Y-98272600D01*
X94645000Y-98000000D02*
X95434600Y-98000000D01*
X95579800Y-98400000D02*
X95707200Y-98272600D01*
X94645000Y-98400000D02*
X95579800Y-98400000D01*
X95707200Y-99020200D02*
X95707200Y-98272600D01*
X95127400Y-99600000D02*
X95707200Y-99020200D01*
X94645000Y-99600000D02*
X95127400Y-99600000D01*
%TO.N,+3.3V*%
X98203400Y-106800000D02*
X98425000Y-106578400D01*
X97355000Y-106800000D02*
X98203400Y-106800000D01*
X98246600Y-106400000D02*
X98425000Y-106578400D01*
X97355000Y-106400000D02*
X98246600Y-106400000D01*
%TO.N,+VIN_PROT_PAYLOAD*%
X98011400Y-94800000D02*
X98806000Y-94005400D01*
X97355000Y-94800000D02*
X98011400Y-94800000D01*
X98411400Y-94400000D02*
X98806000Y-94005400D01*
X97355000Y-94400000D02*
X98411400Y-94400000D01*
X98800600Y-94000000D02*
X98806000Y-94005400D01*
X97355000Y-94000000D02*
X98800600Y-94000000D01*
X98400600Y-93600000D02*
X98806000Y-94005400D01*
X97355000Y-93600000D02*
X98400600Y-93600000D01*
X98000600Y-93200000D02*
X98806000Y-94005400D01*
X97355000Y-93200000D02*
X98000600Y-93200000D01*
D16*
X100558600Y-94411800D02*
X100203000Y-94056200D01*
X100558600Y-102666800D02*
X100558600Y-94411800D01*
X100203000Y-94056200D02*
X100152200Y-94005400D01*
X100558600Y-102666800D02*
X102819200Y-104927400D01*
X100152200Y-94005400D02*
X98806000Y-94005400D01*
X102819200Y-106121200D02*
X102819200Y-104927400D01*
D14*
%TO.N,GND*%
X95611000Y-94000000D02*
X95631000Y-93980000D01*
X94645000Y-94000000D02*
X95611000Y-94000000D01*
X95789200Y-92665000D02*
X95961200Y-92837000D01*
X95140000Y-92665000D02*
X95789200Y-92665000D01*
X96590800Y-107335000D02*
X95961200Y-106705400D01*
X96860000Y-107335000D02*
X96590800Y-107335000D01*
%TO.N,CAM_GPIO*%
X93497400Y-91414600D02*
X93497400Y-91135200D01*
X92583000Y-92329000D02*
X93497400Y-91414600D01*
X92583000Y-100050600D02*
X92583000Y-92329000D01*
X93624400Y-101092000D02*
X92583000Y-100050600D01*
X93916400Y-100800000D02*
X93624400Y-101092000D01*
X94645000Y-100800000D02*
X93916400Y-100800000D01*
%TO.N,SCL0*%
X93732200Y-100400000D02*
X93675200Y-100457000D01*
X94645000Y-100400000D02*
X93732200Y-100400000D01*
D17*
%TO.N,CAM1_D3_N*%
X93831788Y-93218390D02*
X93687668Y-93074270D01*
X94131609Y-93218390D02*
X93831788Y-93218390D01*
X94645000Y-93200000D02*
X94149999Y-93200000D01*
X94149999Y-93200000D02*
X94131609Y-93218390D01*
%TO.N,CAM1_D3_P*%
X93831788Y-93581610D02*
X93687668Y-93725730D01*
X94131609Y-93581610D02*
X93831788Y-93581610D01*
X94645000Y-93600000D02*
X94149999Y-93600000D01*
X94149999Y-93600000D02*
X94131609Y-93581610D01*
%TO.N,CAM1_D0_N*%
X93943273Y-98818390D02*
X93799153Y-98674270D01*
X94131609Y-98818390D02*
X93943273Y-98818390D01*
X94149999Y-98800000D02*
X94131609Y-98818390D01*
X94645000Y-98800000D02*
X94149999Y-98800000D01*
%TO.N,CAM1_D0_P*%
X94131609Y-99181610D02*
X93943273Y-99181610D01*
X94645000Y-99200000D02*
X94149999Y-99200000D01*
X94149999Y-99200000D02*
X94131609Y-99181610D01*
X93943273Y-99181610D02*
X93799153Y-99325730D01*
%TO.N,CAM1_D1_N*%
X93836485Y-97218390D02*
X93692365Y-97074270D01*
X94131609Y-97218390D02*
X93836485Y-97218390D01*
X94149999Y-97200000D02*
X94131609Y-97218390D01*
X94645000Y-97200000D02*
X94149999Y-97200000D01*
%TO.N,CAM1_D1_P*%
X94131609Y-97581610D02*
X93836485Y-97581610D01*
X93836485Y-97581610D02*
X93692365Y-97725730D01*
X94149999Y-97600000D02*
X94131609Y-97581610D01*
X94645000Y-97600000D02*
X94149999Y-97600000D01*
%TO.N,CAM1_C_N*%
X93955331Y-96018390D02*
X93811211Y-95874270D01*
X94131609Y-96018390D02*
X93955331Y-96018390D01*
X94149999Y-96000000D02*
X94131609Y-96018390D01*
X94645000Y-96000000D02*
X94149999Y-96000000D01*
%TO.N,CAM1_C_P*%
X94131609Y-96381610D02*
X93955331Y-96381610D01*
X94149999Y-96400000D02*
X94131609Y-96381610D01*
X93955331Y-96381610D02*
X93811211Y-96525730D01*
X94645000Y-96400000D02*
X94149999Y-96400000D01*
%TO.N,CAM1_D2_N*%
X93915112Y-94418390D02*
X93770992Y-94274270D01*
X94131609Y-94418390D02*
X93915112Y-94418390D01*
X94149999Y-94400000D02*
X94131609Y-94418390D01*
X94645000Y-94400000D02*
X94149999Y-94400000D01*
%TO.N,CAM1_D2_P*%
X94149999Y-94800000D02*
X94131609Y-94781610D01*
X94645000Y-94800000D02*
X94149999Y-94800000D01*
X94131609Y-94781610D02*
X93915112Y-94781610D01*
X93915112Y-94781610D02*
X93770992Y-94925730D01*
D18*
%TO.N,USB2_SSTX+*%
X97365000Y-98790000D02*
X97355000Y-98800000D01*
X98300000Y-98790000D02*
X97365000Y-98790000D01*
%TO.N,USB2_SSTX-*%
X98646500Y-99200000D02*
X99190000Y-98656500D01*
X97355000Y-99200000D02*
X98646500Y-99200000D01*
%TO.N,USB2_SSRX-*%
X98506500Y-97600000D02*
X98970000Y-97136500D01*
%TO.N,USB2_SSRX+*%
X98210000Y-97200000D02*
X97355000Y-97200000D01*
%TO.N,USB2_SSRX-*%
X97355000Y-97600000D02*
X98506500Y-97600000D01*
D17*
%TO.N,ETH_PAYLOAD_TX_POSTMAG_N*%
X92863959Y-106752401D02*
X92730000Y-106886360D01*
X94597401Y-106752401D02*
X92863959Y-106752401D01*
%TO.N,ETH_PAYLOAD_TX_POSTMAG_P*%
X94597401Y-106447599D02*
X92863959Y-106447599D01*
%TO.N,ETH_PAYLOAD_TX_POSTMAG_N*%
X94645000Y-106800000D02*
X94597401Y-106752401D01*
%TO.N,ETH_PAYLOAD_TX_POSTMAG_P*%
X92863959Y-106447599D02*
X92730000Y-106313640D01*
X94645000Y-106400000D02*
X94597401Y-106447599D01*
%TO.N,ETH_PAYLOAD_RX_POSTMAG_N*%
X94149999Y-106000000D02*
X94645000Y-106000000D01*
X94102399Y-105952400D02*
X94149999Y-106000000D01*
X93736872Y-105952400D02*
X94102399Y-105952400D01*
X93207600Y-105423128D02*
X93736872Y-105952400D01*
X93207600Y-104470828D02*
X93207600Y-105423128D01*
X92928132Y-104191360D02*
X93207600Y-104470828D01*
X92786465Y-104191360D02*
X92928132Y-104191360D01*
%TO.N,ETH_PAYLOAD_RX_POSTMAG_P*%
X94149999Y-105600000D02*
X94645000Y-105600000D01*
X94102399Y-105647600D02*
X94149999Y-105600000D01*
X93863128Y-105647600D02*
X94102399Y-105647600D01*
X93512400Y-105296872D02*
X93863128Y-105647600D01*
X93512400Y-104344575D02*
X93512400Y-105296872D01*
X92786465Y-103618640D02*
X93512400Y-104344575D01*
%TD*%
M02*
